<?xml version="1.0" encoding="utf-8" standalone="no"?>
<!DOCTYPE svg PUBLIC "-//W3C//DTD SVG 1.1//EN"
  "http://www.w3.org/Graphics/SVG/1.1/DTD/svg11.dtd">
<svg xmlns:xlink="http://www.w3.org/1999/xlink" width="576pt" height="432pt" viewBox="0 0 576 432" xmlns="http://www.w3.org/2000/svg" version="1.1">
 <metadata>
  <rdf:RDF xmlns:dc="http://purl.org/dc/elements/1.1/" xmlns:cc="http://creativecommons.org/ns#" xmlns:rdf="http://www.w3.org/1999/02/22-rdf-syntax-ns#">
   <cc:Work>
    <dc:type rdf:resource="http://purl.org/dc/dcmitype/StillImage"/>
    <dc:date>2023-03-08T13:02:57.676223</dc:date>
    <dc:format>image/svg+xml</dc:format>
    <dc:creator>
     <cc:Agent>
      <dc:title>Matplotlib v3.5.3, https://matplotlib.org/</dc:title>
     </cc:Agent>
    </dc:creator>
   </cc:Work>
  </rdf:RDF>
 </metadata>
 <defs>
  <style type="text/css">*{stroke-linejoin: round; stroke-linecap: butt}</style>
 </defs>
 <g id="figure_1">
  <g id="patch_1">
   <path d="M 0 432 
L 576 432 
L 576 0 
L 0 0 
z
" style="fill: #ffffff"/>
  </g>
  <g id="axes_1">
   <g id="patch_2">
    <path d="M 72 388.8 
L 518.4 388.8 
L 518.4 43.2 
L 72 43.2 
z
" style="fill: #ffffff"/>
   </g>
   <g id="patch_3">
    <path d="M 72 388.8 
L 76.464 388.8 
L 76.464 388.8 
L 72 388.8 
z
" clip-path="url(#p7ca5b9ba27)" style="fill: #0000ff; opacity: 0.2; stroke: #0000ff; stroke-linejoin: miter"/>
   </g>
   <g id="patch_4">
    <path d="M 76.464 388.8 
L 80.928 388.8 
L 80.928 388.8 
L 76.464 388.8 
z
" clip-path="url(#p7ca5b9ba27)" style="fill: #0000ff; opacity: 0.2; stroke: #0000ff; stroke-linejoin: miter"/>
   </g>
   <g id="patch_5">
    <path d="M 80.928 388.8 
L 85.392 388.8 
L 85.392 388.8 
L 80.928 388.8 
z
" clip-path="url(#p7ca5b9ba27)" style="fill: #0000ff; opacity: 0.2; stroke: #0000ff; stroke-linejoin: miter"/>
   </g>
   <g id="patch_6">
    <path d="M 85.392 388.8 
L 89.856 388.8 
L 89.856 388.8 
L 85.392 388.8 
z
" clip-path="url(#p7ca5b9ba27)" style="fill: #0000ff; opacity: 0.2; stroke: #0000ff; stroke-linejoin: miter"/>
   </g>
   <g id="patch_7">
    <path d="M 89.856 388.8 
L 94.32 388.8 
L 94.32 388.8 
L 89.856 388.8 
z
" clip-path="url(#p7ca5b9ba27)" style="fill: #0000ff; opacity: 0.2; stroke: #0000ff; stroke-linejoin: miter"/>
   </g>
   <g id="patch_8">
    <path d="M 94.32 388.8 
L 98.784 388.8 
L 98.784 388.8 
L 94.32 388.8 
z
" clip-path="url(#p7ca5b9ba27)" style="fill: #0000ff; opacity: 0.2; stroke: #0000ff; stroke-linejoin: miter"/>
   </g>
   <g id="patch_9">
    <path d="M 98.784 388.8 
L 103.248 388.8 
L 103.248 388.8 
L 98.784 388.8 
z
" clip-path="url(#p7ca5b9ba27)" style="fill: #0000ff; opacity: 0.2; stroke: #0000ff; stroke-linejoin: miter"/>
   </g>
   <g id="patch_10">
    <path d="M 103.248 388.8 
L 107.712 388.8 
L 107.712 388.8 
L 103.248 388.8 
z
" clip-path="url(#p7ca5b9ba27)" style="fill: #0000ff; opacity: 0.2; stroke: #0000ff; stroke-linejoin: miter"/>
   </g>
   <g id="patch_11">
    <path d="M 107.712 388.8 
L 112.176 388.8 
L 112.176 388.8 
L 107.712 388.8 
z
" clip-path="url(#p7ca5b9ba27)" style="fill: #0000ff; opacity: 0.2; stroke: #0000ff; stroke-linejoin: miter"/>
   </g>
   <g id="patch_12">
    <path d="M 112.176 388.8 
L 116.64 388.8 
L 116.64 388.8 
L 112.176 388.8 
z
" clip-path="url(#p7ca5b9ba27)" style="fill: #0000ff; opacity: 0.2; stroke: #0000ff; stroke-linejoin: miter"/>
   </g>
   <g id="patch_13">
    <path d="M 116.64 388.8 
L 121.104 388.8 
L 121.104 388.8 
L 116.64 388.8 
z
" clip-path="url(#p7ca5b9ba27)" style="fill: #0000ff; opacity: 0.2; stroke: #0000ff; stroke-linejoin: miter"/>
   </g>
   <g id="patch_14">
    <path d="M 121.104 388.8 
L 125.568 388.8 
L 125.568 388.8 
L 121.104 388.8 
z
" clip-path="url(#p7ca5b9ba27)" style="fill: #0000ff; opacity: 0.2; stroke: #0000ff; stroke-linejoin: miter"/>
   </g>
   <g id="patch_15">
    <path d="M 125.568 388.8 
L 130.032 388.8 
L 130.032 388.8 
L 125.568 388.8 
z
" clip-path="url(#p7ca5b9ba27)" style="fill: #0000ff; opacity: 0.2; stroke: #0000ff; stroke-linejoin: miter"/>
   </g>
   <g id="patch_16">
    <path d="M 130.032 388.8 
L 134.496 388.8 
L 134.496 388.8 
L 130.032 388.8 
z
" clip-path="url(#p7ca5b9ba27)" style="fill: #0000ff; opacity: 0.2; stroke: #0000ff; stroke-linejoin: miter"/>
   </g>
   <g id="patch_17">
    <path d="M 134.496 388.8 
L 138.96 388.8 
L 138.96 388.8 
L 134.496 388.8 
z
" clip-path="url(#p7ca5b9ba27)" style="fill: #0000ff; opacity: 0.2; stroke: #0000ff; stroke-linejoin: miter"/>
   </g>
   <g id="patch_18">
    <path d="M 138.96 388.8 
L 143.424 388.8 
L 143.424 388.8 
L 138.96 388.8 
z
" clip-path="url(#p7ca5b9ba27)" style="fill: #0000ff; opacity: 0.2; stroke: #0000ff; stroke-linejoin: miter"/>
   </g>
   <g id="patch_19">
    <path d="M 143.424 388.8 
L 147.888 388.8 
L 147.888 388.8 
L 143.424 388.8 
z
" clip-path="url(#p7ca5b9ba27)" style="fill: #0000ff; opacity: 0.2; stroke: #0000ff; stroke-linejoin: miter"/>
   </g>
   <g id="patch_20">
    <path d="M 147.888 388.8 
L 152.352 388.8 
L 152.352 388.8 
L 147.888 388.8 
z
" clip-path="url(#p7ca5b9ba27)" style="fill: #0000ff; opacity: 0.2; stroke: #0000ff; stroke-linejoin: miter"/>
   </g>
   <g id="patch_21">
    <path d="M 152.352 388.8 
L 156.816 388.8 
L 156.816 388.8 
L 152.352 388.8 
z
" clip-path="url(#p7ca5b9ba27)" style="fill: #0000ff; opacity: 0.2; stroke: #0000ff; stroke-linejoin: miter"/>
   </g>
   <g id="patch_22">
    <path d="M 156.816 388.8 
L 161.28 388.8 
L 161.28 388.8 
L 156.816 388.8 
z
" clip-path="url(#p7ca5b9ba27)" style="fill: #0000ff; opacity: 0.2; stroke: #0000ff; stroke-linejoin: miter"/>
   </g>
   <g id="patch_23">
    <path d="M 161.28 388.8 
L 165.744 388.8 
L 165.744 336.685714 
L 161.28 336.685714 
z
" clip-path="url(#p7ca5b9ba27)" style="fill: #0000ff; opacity: 0.2; stroke: #0000ff; stroke-linejoin: miter"/>
   </g>
   <g id="patch_24">
    <path d="M 165.744 388.8 
L 170.208 388.8 
L 170.208 358.628571 
L 165.744 358.628571 
z
" clip-path="url(#p7ca5b9ba27)" style="fill: #0000ff; opacity: 0.2; stroke: #0000ff; stroke-linejoin: miter"/>
   </g>
   <g id="patch_25">
    <path d="M 170.208 388.8 
L 174.672 388.8 
L 174.672 328.457143 
L 170.208 328.457143 
z
" clip-path="url(#p7ca5b9ba27)" style="fill: #0000ff; opacity: 0.2; stroke: #0000ff; stroke-linejoin: miter"/>
   </g>
   <g id="patch_26">
    <path d="M 174.672 388.8 
L 179.136 388.8 
L 179.136 309.257143 
L 174.672 309.257143 
z
" clip-path="url(#p7ca5b9ba27)" style="fill: #0000ff; opacity: 0.2; stroke: #0000ff; stroke-linejoin: miter"/>
   </g>
   <g id="patch_27">
    <path d="M 179.136 388.8 
L 183.6 388.8 
L 183.6 262.628571 
L 179.136 262.628571 
z
" clip-path="url(#p7ca5b9ba27)" style="fill: #0000ff; opacity: 0.2; stroke: #0000ff; stroke-linejoin: miter"/>
   </g>
   <g id="patch_28">
    <path d="M 183.6 388.8 
L 188.064 388.8 
L 188.064 270.857143 
L 183.6 270.857143 
z
" clip-path="url(#p7ca5b9ba27)" style="fill: #0000ff; opacity: 0.2; stroke: #0000ff; stroke-linejoin: miter"/>
   </g>
   <g id="patch_29">
    <path d="M 188.064 388.8 
L 192.528 388.8 
L 192.528 270.857143 
L 188.064 270.857143 
z
" clip-path="url(#p7ca5b9ba27)" style="fill: #0000ff; opacity: 0.2; stroke: #0000ff; stroke-linejoin: miter"/>
   </g>
   <g id="patch_30">
    <path d="M 192.528 388.8 
L 196.992 388.8 
L 196.992 268.114286 
L 192.528 268.114286 
z
" clip-path="url(#p7ca5b9ba27)" style="fill: #0000ff; opacity: 0.2; stroke: #0000ff; stroke-linejoin: miter"/>
   </g>
   <g id="patch_31">
    <path d="M 196.992 388.8 
L 201.456 388.8 
L 201.456 248.914286 
L 196.992 248.914286 
z
" clip-path="url(#p7ca5b9ba27)" style="fill: #0000ff; opacity: 0.2; stroke: #0000ff; stroke-linejoin: miter"/>
   </g>
   <g id="patch_32">
    <path d="M 201.456 388.8 
L 205.92 388.8 
L 205.92 270.857143 
L 201.456 270.857143 
z
" clip-path="url(#p7ca5b9ba27)" style="fill: #0000ff; opacity: 0.2; stroke: #0000ff; stroke-linejoin: miter"/>
   </g>
   <g id="patch_33">
    <path d="M 205.92 388.8 
L 210.384 388.8 
L 210.384 298.285714 
L 205.92 298.285714 
z
" clip-path="url(#p7ca5b9ba27)" style="fill: #0000ff; opacity: 0.2; stroke: #0000ff; stroke-linejoin: miter"/>
   </g>
   <g id="patch_34">
    <path d="M 210.384 388.8 
L 214.848 388.8 
L 214.848 290.057143 
L 210.384 290.057143 
z
" clip-path="url(#p7ca5b9ba27)" style="fill: #0000ff; opacity: 0.2; stroke: #0000ff; stroke-linejoin: miter"/>
   </g>
   <g id="patch_35">
    <path d="M 214.848 388.8 
L 219.312 388.8 
L 219.312 248.914286 
L 214.848 248.914286 
z
" clip-path="url(#p7ca5b9ba27)" style="fill: #0000ff; opacity: 0.2; stroke: #0000ff; stroke-linejoin: miter"/>
   </g>
   <g id="patch_36">
    <path d="M 219.312 388.8 
L 223.776 388.8 
L 223.776 295.542857 
L 219.312 295.542857 
z
" clip-path="url(#p7ca5b9ba27)" style="fill: #0000ff; opacity: 0.2; stroke: #0000ff; stroke-linejoin: miter"/>
   </g>
   <g id="patch_37">
    <path d="M 223.776 388.8 
L 228.24 388.8 
L 228.24 292.8 
L 223.776 292.8 
z
" clip-path="url(#p7ca5b9ba27)" style="fill: #0000ff; opacity: 0.2; stroke: #0000ff; stroke-linejoin: miter"/>
   </g>
   <g id="patch_38">
    <path d="M 228.24 388.8 
L 232.704 388.8 
L 232.704 303.771429 
L 228.24 303.771429 
z
" clip-path="url(#p7ca5b9ba27)" style="fill: #0000ff; opacity: 0.2; stroke: #0000ff; stroke-linejoin: miter"/>
   </g>
   <g id="patch_39">
    <path d="M 232.704 388.8 
L 237.168 388.8 
L 237.168 224.228571 
L 232.704 224.228571 
z
" clip-path="url(#p7ca5b9ba27)" style="fill: #0000ff; opacity: 0.2; stroke: #0000ff; stroke-linejoin: miter"/>
   </g>
   <g id="patch_40">
    <path d="M 237.168 388.8 
L 241.632 388.8 
L 241.632 177.6 
L 237.168 177.6 
z
" clip-path="url(#p7ca5b9ba27)" style="fill: #0000ff; opacity: 0.2; stroke: #0000ff; stroke-linejoin: miter"/>
   </g>
   <g id="patch_41">
    <path d="M 241.632 388.8 
L 246.096 388.8 
L 246.096 158.4 
L 241.632 158.4 
z
" clip-path="url(#p7ca5b9ba27)" style="fill: #0000ff; opacity: 0.2; stroke: #0000ff; stroke-linejoin: miter"/>
   </g>
   <g id="patch_42">
    <path d="M 246.096 388.8 
L 250.56 388.8 
L 250.56 67.885714 
L 246.096 67.885714 
z
" clip-path="url(#p7ca5b9ba27)" style="fill: #0000ff; opacity: 0.2; stroke: #0000ff; stroke-linejoin: miter"/>
   </g>
   <g id="patch_43">
    <path d="M 250.56 388.8 
L 255.024 388.8 
L 255.024 100.8 
L 250.56 100.8 
z
" clip-path="url(#p7ca5b9ba27)" style="fill: #0000ff; opacity: 0.2; stroke: #0000ff; stroke-linejoin: miter"/>
   </g>
   <g id="patch_44">
    <path d="M 255.024 388.8 
L 259.488 388.8 
L 259.488 59.657143 
L 255.024 59.657143 
z
" clip-path="url(#p7ca5b9ba27)" style="fill: #0000ff; opacity: 0.2; stroke: #0000ff; stroke-linejoin: miter"/>
   </g>
   <g id="patch_45">
    <path d="M 259.488 388.8 
L 263.952 388.8 
L 263.952 150.171429 
L 259.488 150.171429 
z
" clip-path="url(#p7ca5b9ba27)" style="fill: #0000ff; opacity: 0.2; stroke: #0000ff; stroke-linejoin: miter"/>
   </g>
   <g id="patch_46">
    <path d="M 263.952 388.8 
L 268.416 388.8 
L 268.416 191.314286 
L 263.952 191.314286 
z
" clip-path="url(#p7ca5b9ba27)" style="fill: #0000ff; opacity: 0.2; stroke: #0000ff; stroke-linejoin: miter"/>
   </g>
   <g id="patch_47">
    <path d="M 268.416 388.8 
L 272.88 388.8 
L 272.88 232.457143 
L 268.416 232.457143 
z
" clip-path="url(#p7ca5b9ba27)" style="fill: #0000ff; opacity: 0.2; stroke: #0000ff; stroke-linejoin: miter"/>
   </g>
   <g id="patch_48">
    <path d="M 272.88 388.8 
L 277.344 388.8 
L 277.344 268.114286 
L 272.88 268.114286 
z
" clip-path="url(#p7ca5b9ba27)" style="fill: #0000ff; opacity: 0.2; stroke: #0000ff; stroke-linejoin: miter"/>
   </g>
   <g id="patch_49">
    <path d="M 277.344 388.8 
L 281.808 388.8 
L 281.808 295.542857 
L 277.344 295.542857 
z
" clip-path="url(#p7ca5b9ba27)" style="fill: #0000ff; opacity: 0.2; stroke: #0000ff; stroke-linejoin: miter"/>
   </g>
   <g id="patch_50">
    <path d="M 281.808 388.8 
L 286.272 388.8 
L 286.272 301.028571 
L 281.808 301.028571 
z
" clip-path="url(#p7ca5b9ba27)" style="fill: #0000ff; opacity: 0.2; stroke: #0000ff; stroke-linejoin: miter"/>
   </g>
   <g id="patch_51">
    <path d="M 286.272 388.8 
L 290.736 388.8 
L 290.736 325.714286 
L 286.272 325.714286 
z
" clip-path="url(#p7ca5b9ba27)" style="fill: #0000ff; opacity: 0.2; stroke: #0000ff; stroke-linejoin: miter"/>
   </g>
   <g id="patch_52">
    <path d="M 290.736 388.8 
L 295.2 388.8 
L 295.2 320.228571 
L 290.736 320.228571 
z
" clip-path="url(#p7ca5b9ba27)" style="fill: #0000ff; opacity: 0.2; stroke: #0000ff; stroke-linejoin: miter"/>
   </g>
   <g id="patch_53">
    <path d="M 295.2 388.8 
L 299.664 388.8 
L 299.664 355.885714 
L 295.2 355.885714 
z
" clip-path="url(#p7ca5b9ba27)" style="fill: #0000ff; opacity: 0.2; stroke: #0000ff; stroke-linejoin: miter"/>
   </g>
   <g id="patch_54">
    <path d="M 299.664 388.8 
L 304.128 388.8 
L 304.128 353.142857 
L 299.664 353.142857 
z
" clip-path="url(#p7ca5b9ba27)" style="fill: #0000ff; opacity: 0.2; stroke: #0000ff; stroke-linejoin: miter"/>
   </g>
   <g id="patch_55">
    <path d="M 304.128 388.8 
L 308.592 388.8 
L 308.592 375.085714 
L 304.128 375.085714 
z
" clip-path="url(#p7ca5b9ba27)" style="fill: #0000ff; opacity: 0.2; stroke: #0000ff; stroke-linejoin: miter"/>
   </g>
   <g id="patch_56">
    <path d="M 308.592 388.8 
L 313.056 388.8 
L 313.056 369.6 
L 308.592 369.6 
z
" clip-path="url(#p7ca5b9ba27)" style="fill: #0000ff; opacity: 0.2; stroke: #0000ff; stroke-linejoin: miter"/>
   </g>
   <g id="patch_57">
    <path d="M 313.056 388.8 
L 317.52 388.8 
L 317.52 369.6 
L 313.056 369.6 
z
" clip-path="url(#p7ca5b9ba27)" style="fill: #0000ff; opacity: 0.2; stroke: #0000ff; stroke-linejoin: miter"/>
   </g>
   <g id="patch_58">
    <path d="M 317.52 388.8 
L 321.984 388.8 
L 321.984 380.571429 
L 317.52 380.571429 
z
" clip-path="url(#p7ca5b9ba27)" style="fill: #0000ff; opacity: 0.2; stroke: #0000ff; stroke-linejoin: miter"/>
   </g>
   <g id="patch_59">
    <path d="M 321.984 388.8 
L 326.448 388.8 
L 326.448 386.057143 
L 321.984 386.057143 
z
" clip-path="url(#p7ca5b9ba27)" style="fill: #0000ff; opacity: 0.2; stroke: #0000ff; stroke-linejoin: miter"/>
   </g>
   <g id="patch_60">
    <path d="M 326.448 388.8 
L 330.912 388.8 
L 330.912 383.314286 
L 326.448 383.314286 
z
" clip-path="url(#p7ca5b9ba27)" style="fill: #0000ff; opacity: 0.2; stroke: #0000ff; stroke-linejoin: miter"/>
   </g>
   <g id="patch_61">
    <path d="M 330.912 388.8 
L 335.376 388.8 
L 335.376 383.314286 
L 330.912 383.314286 
z
" clip-path="url(#p7ca5b9ba27)" style="fill: #0000ff; opacity: 0.2; stroke: #0000ff; stroke-linejoin: miter"/>
   </g>
   <g id="patch_62">
    <path d="M 335.376 388.8 
L 339.84 388.8 
L 339.84 380.571429 
L 335.376 380.571429 
z
" clip-path="url(#p7ca5b9ba27)" style="fill: #0000ff; opacity: 0.2; stroke: #0000ff; stroke-linejoin: miter"/>
   </g>
   <g id="patch_63">
    <path d="M 339.84 388.8 
L 344.304 388.8 
L 344.304 386.057143 
L 339.84 386.057143 
z
" clip-path="url(#p7ca5b9ba27)" style="fill: #0000ff; opacity: 0.2; stroke: #0000ff; stroke-linejoin: miter"/>
   </g>
   <g id="patch_64">
    <path d="M 344.304 388.8 
L 348.768 388.8 
L 348.768 380.571429 
L 344.304 380.571429 
z
" clip-path="url(#p7ca5b9ba27)" style="fill: #0000ff; opacity: 0.2; stroke: #0000ff; stroke-linejoin: miter"/>
   </g>
   <g id="patch_65">
    <path d="M 348.768 388.8 
L 353.232 388.8 
L 353.232 383.314286 
L 348.768 383.314286 
z
" clip-path="url(#p7ca5b9ba27)" style="fill: #0000ff; opacity: 0.2; stroke: #0000ff; stroke-linejoin: miter"/>
   </g>
   <g id="patch_66">
    <path d="M 353.232 388.8 
L 357.696 388.8 
L 357.696 388.8 
L 353.232 388.8 
z
" clip-path="url(#p7ca5b9ba27)" style="fill: #0000ff; opacity: 0.2; stroke: #0000ff; stroke-linejoin: miter"/>
   </g>
   <g id="patch_67">
    <path d="M 357.696 388.8 
L 362.16 388.8 
L 362.16 388.8 
L 357.696 388.8 
z
" clip-path="url(#p7ca5b9ba27)" style="fill: #0000ff; opacity: 0.2; stroke: #0000ff; stroke-linejoin: miter"/>
   </g>
   <g id="patch_68">
    <path d="M 362.16 388.8 
L 366.624 388.8 
L 366.624 386.057143 
L 362.16 386.057143 
z
" clip-path="url(#p7ca5b9ba27)" style="fill: #0000ff; opacity: 0.2; stroke: #0000ff; stroke-linejoin: miter"/>
   </g>
   <g id="patch_69">
    <path d="M 366.624 388.8 
L 371.088 388.8 
L 371.088 388.8 
L 366.624 388.8 
z
" clip-path="url(#p7ca5b9ba27)" style="fill: #0000ff; opacity: 0.2; stroke: #0000ff; stroke-linejoin: miter"/>
   </g>
   <g id="patch_70">
    <path d="M 371.088 388.8 
L 375.552 388.8 
L 375.552 386.057143 
L 371.088 386.057143 
z
" clip-path="url(#p7ca5b9ba27)" style="fill: #0000ff; opacity: 0.2; stroke: #0000ff; stroke-linejoin: miter"/>
   </g>
   <g id="patch_71">
    <path d="M 375.552 388.8 
L 380.016 388.8 
L 380.016 386.057143 
L 375.552 386.057143 
z
" clip-path="url(#p7ca5b9ba27)" style="fill: #0000ff; opacity: 0.2; stroke: #0000ff; stroke-linejoin: miter"/>
   </g>
   <g id="patch_72">
    <path d="M 380.016 388.8 
L 384.48 388.8 
L 384.48 386.057143 
L 380.016 386.057143 
z
" clip-path="url(#p7ca5b9ba27)" style="fill: #0000ff; opacity: 0.2; stroke: #0000ff; stroke-linejoin: miter"/>
   </g>
   <g id="patch_73">
    <path d="M 384.48 388.8 
L 388.944 388.8 
L 388.944 388.8 
L 384.48 388.8 
z
" clip-path="url(#p7ca5b9ba27)" style="fill: #0000ff; opacity: 0.2; stroke: #0000ff; stroke-linejoin: miter"/>
   </g>
   <g id="patch_74">
    <path d="M 388.944 388.8 
L 393.408 388.8 
L 393.408 386.057143 
L 388.944 386.057143 
z
" clip-path="url(#p7ca5b9ba27)" style="fill: #0000ff; opacity: 0.2; stroke: #0000ff; stroke-linejoin: miter"/>
   </g>
   <g id="patch_75">
    <path d="M 393.408 388.8 
L 397.872 388.8 
L 397.872 388.8 
L 393.408 388.8 
z
" clip-path="url(#p7ca5b9ba27)" style="fill: #0000ff; opacity: 0.2; stroke: #0000ff; stroke-linejoin: miter"/>
   </g>
   <g id="patch_76">
    <path d="M 397.872 388.8 
L 402.336 388.8 
L 402.336 388.8 
L 397.872 388.8 
z
" clip-path="url(#p7ca5b9ba27)" style="fill: #0000ff; opacity: 0.2; stroke: #0000ff; stroke-linejoin: miter"/>
   </g>
   <g id="patch_77">
    <path d="M 402.336 388.8 
L 406.8 388.8 
L 406.8 388.8 
L 402.336 388.8 
z
" clip-path="url(#p7ca5b9ba27)" style="fill: #0000ff; opacity: 0.2; stroke: #0000ff; stroke-linejoin: miter"/>
   </g>
   <g id="patch_78">
    <path d="M 406.8 388.8 
L 411.264 388.8 
L 411.264 388.8 
L 406.8 388.8 
z
" clip-path="url(#p7ca5b9ba27)" style="fill: #0000ff; opacity: 0.2; stroke: #0000ff; stroke-linejoin: miter"/>
   </g>
   <g id="patch_79">
    <path d="M 411.264 388.8 
L 415.728 388.8 
L 415.728 388.8 
L 411.264 388.8 
z
" clip-path="url(#p7ca5b9ba27)" style="fill: #0000ff; opacity: 0.2; stroke: #0000ff; stroke-linejoin: miter"/>
   </g>
   <g id="patch_80">
    <path d="M 415.728 388.8 
L 420.192 388.8 
L 420.192 388.8 
L 415.728 388.8 
z
" clip-path="url(#p7ca5b9ba27)" style="fill: #0000ff; opacity: 0.2; stroke: #0000ff; stroke-linejoin: miter"/>
   </g>
   <g id="patch_81">
    <path d="M 420.192 388.8 
L 424.656 388.8 
L 424.656 388.8 
L 420.192 388.8 
z
" clip-path="url(#p7ca5b9ba27)" style="fill: #0000ff; opacity: 0.2; stroke: #0000ff; stroke-linejoin: miter"/>
   </g>
   <g id="patch_82">
    <path d="M 424.656 388.8 
L 429.12 388.8 
L 429.12 388.8 
L 424.656 388.8 
z
" clip-path="url(#p7ca5b9ba27)" style="fill: #0000ff; opacity: 0.2; stroke: #0000ff; stroke-linejoin: miter"/>
   </g>
   <g id="patch_83">
    <path d="M 429.12 388.8 
L 433.584 388.8 
L 433.584 388.8 
L 429.12 388.8 
z
" clip-path="url(#p7ca5b9ba27)" style="fill: #0000ff; opacity: 0.2; stroke: #0000ff; stroke-linejoin: miter"/>
   </g>
   <g id="patch_84">
    <path d="M 433.584 388.8 
L 438.048 388.8 
L 438.048 388.8 
L 433.584 388.8 
z
" clip-path="url(#p7ca5b9ba27)" style="fill: #0000ff; opacity: 0.2; stroke: #0000ff; stroke-linejoin: miter"/>
   </g>
   <g id="patch_85">
    <path d="M 438.048 388.8 
L 442.512 388.8 
L 442.512 388.8 
L 438.048 388.8 
z
" clip-path="url(#p7ca5b9ba27)" style="fill: #0000ff; opacity: 0.2; stroke: #0000ff; stroke-linejoin: miter"/>
   </g>
   <g id="patch_86">
    <path d="M 442.512 388.8 
L 446.976 388.8 
L 446.976 388.8 
L 442.512 388.8 
z
" clip-path="url(#p7ca5b9ba27)" style="fill: #0000ff; opacity: 0.2; stroke: #0000ff; stroke-linejoin: miter"/>
   </g>
   <g id="patch_87">
    <path d="M 446.976 388.8 
L 451.44 388.8 
L 451.44 388.8 
L 446.976 388.8 
z
" clip-path="url(#p7ca5b9ba27)" style="fill: #0000ff; opacity: 0.2; stroke: #0000ff; stroke-linejoin: miter"/>
   </g>
   <g id="patch_88">
    <path d="M 451.44 388.8 
L 455.904 388.8 
L 455.904 386.057143 
L 451.44 386.057143 
z
" clip-path="url(#p7ca5b9ba27)" style="fill: #0000ff; opacity: 0.2; stroke: #0000ff; stroke-linejoin: miter"/>
   </g>
   <g id="patch_89">
    <path d="M 455.904 388.8 
L 460.368 388.8 
L 460.368 388.8 
L 455.904 388.8 
z
" clip-path="url(#p7ca5b9ba27)" style="fill: #0000ff; opacity: 0.2; stroke: #0000ff; stroke-linejoin: miter"/>
   </g>
   <g id="patch_90">
    <path d="M 460.368 388.8 
L 464.832 388.8 
L 464.832 388.8 
L 460.368 388.8 
z
" clip-path="url(#p7ca5b9ba27)" style="fill: #0000ff; opacity: 0.2; stroke: #0000ff; stroke-linejoin: miter"/>
   </g>
   <g id="patch_91">
    <path d="M 464.832 388.8 
L 469.296 388.8 
L 469.296 388.8 
L 464.832 388.8 
z
" clip-path="url(#p7ca5b9ba27)" style="fill: #0000ff; opacity: 0.2; stroke: #0000ff; stroke-linejoin: miter"/>
   </g>
   <g id="patch_92">
    <path d="M 469.296 388.8 
L 473.76 388.8 
L 473.76 388.8 
L 469.296 388.8 
z
" clip-path="url(#p7ca5b9ba27)" style="fill: #0000ff; opacity: 0.2; stroke: #0000ff; stroke-linejoin: miter"/>
   </g>
   <g id="patch_93">
    <path d="M 473.76 388.8 
L 478.224 388.8 
L 478.224 388.8 
L 473.76 388.8 
z
" clip-path="url(#p7ca5b9ba27)" style="fill: #0000ff; opacity: 0.2; stroke: #0000ff; stroke-linejoin: miter"/>
   </g>
   <g id="patch_94">
    <path d="M 478.224 388.8 
L 482.688 388.8 
L 482.688 388.8 
L 478.224 388.8 
z
" clip-path="url(#p7ca5b9ba27)" style="fill: #0000ff; opacity: 0.2; stroke: #0000ff; stroke-linejoin: miter"/>
   </g>
   <g id="patch_95">
    <path d="M 482.688 388.8 
L 487.152 388.8 
L 487.152 388.8 
L 482.688 388.8 
z
" clip-path="url(#p7ca5b9ba27)" style="fill: #0000ff; opacity: 0.2; stroke: #0000ff; stroke-linejoin: miter"/>
   </g>
   <g id="patch_96">
    <path d="M 487.152 388.8 
L 491.616 388.8 
L 491.616 388.8 
L 487.152 388.8 
z
" clip-path="url(#p7ca5b9ba27)" style="fill: #0000ff; opacity: 0.2; stroke: #0000ff; stroke-linejoin: miter"/>
   </g>
   <g id="patch_97">
    <path d="M 491.616 388.8 
L 496.08 388.8 
L 496.08 388.8 
L 491.616 388.8 
z
" clip-path="url(#p7ca5b9ba27)" style="fill: #0000ff; opacity: 0.2; stroke: #0000ff; stroke-linejoin: miter"/>
   </g>
   <g id="patch_98">
    <path d="M 496.08 388.8 
L 500.544 388.8 
L 500.544 388.8 
L 496.08 388.8 
z
" clip-path="url(#p7ca5b9ba27)" style="fill: #0000ff; opacity: 0.2; stroke: #0000ff; stroke-linejoin: miter"/>
   </g>
   <g id="patch_99">
    <path d="M 500.544 388.8 
L 505.008 388.8 
L 505.008 388.8 
L 500.544 388.8 
z
" clip-path="url(#p7ca5b9ba27)" style="fill: #0000ff; opacity: 0.2; stroke: #0000ff; stroke-linejoin: miter"/>
   </g>
   <g id="patch_100">
    <path d="M 505.008 388.8 
L 509.472 388.8 
L 509.472 388.8 
L 505.008 388.8 
z
" clip-path="url(#p7ca5b9ba27)" style="fill: #0000ff; opacity: 0.2; stroke: #0000ff; stroke-linejoin: miter"/>
   </g>
   <g id="patch_101">
    <path d="M 509.472 388.8 
L 513.936 388.8 
L 513.936 388.8 
L 509.472 388.8 
z
" clip-path="url(#p7ca5b9ba27)" style="fill: #0000ff; opacity: 0.2; stroke: #0000ff; stroke-linejoin: miter"/>
   </g>
   <g id="line2d_1">
    <path d="M 72 388.8 
L 161.28 388.8 
L 162.1728 376.86946 
L 163.9584 358.069906 
L 165.744 342.471115 
L 167.5296 329.214624 
L 169.3152 317.886907 
L 171.1008 308.211888 
L 172.8864 299.979789 
L 174.672 293.02037 
L 176.4576 287.190179 
L 178.2432 282.365489 
L 180.0288 278.437952 
L 181.8144 275.311699 
L 183.6 272.90128 
L 185.3856 271.130136 
L 187.1712 269.929408 
L 188.9568 269.236991 
L 190.7424 268.996756 
L 192.528 269.157892 
L 194.3136 269.674343 
L 196.0992 270.504289 
L 197.8848 271.609634 
L 199.6704 272.955414 
L 202.3488 275.353877 
L 205.0272 278.112948 
L 209.4912 283.17597 
L 213.0624 287.141435 
L 214.848 288.845509 
L 216.6336 290.177427 
L 217.5264 290.647411 
L 218.4192 290.952061 
L 219.312 291.062714 
L 220.2048 290.948884 
L 221.0976 290.578638 
L 221.9904 289.919068 
L 222.8832 288.93687 
L 223.776 287.599019 
L 224.6688 285.873525 
L 225.5616 283.730259 
L 226.4544 281.141821 
L 227.3472 278.08444 
L 228.24 274.538866 
L 230.0256 265.933844 
L 231.8112 255.294188 
L 233.5968 242.706157 
L 235.3824 228.386646 
L 238.0608 204.456076 
L 244.3104 146.662798 
L 246.096 132.487697 
L 247.8816 120.469246 
L 248.7744 115.425855 
L 249.6672 111.095845 
L 250.56 107.52113 
L 251.4528 104.734854 
L 252.3456 102.761086 
L 253.2384 101.614682 
L 254.1312 101.301323 
L 255.024 101.817702 
L 255.9168 103.151872 
L 256.8096 105.283713 
L 257.7024 108.185527 
L 258.5952 111.822724 
L 259.488 116.154585 
L 261.2736 126.713795 
L 263.0592 139.447052 
L 264.8448 153.89538 
L 267.5232 177.746791 
L 275.5584 251.62124 
L 278.2368 273.438622 
L 280.0224 286.646313 
L 281.808 298.694835 
L 283.5936 309.560143 
L 285.3792 319.256187 
L 287.1648 327.826784 
L 288.9504 335.337829 
L 290.736 341.870218 
L 292.5216 347.513678 
L 294.3072 352.361644 
L 296.0928 356.507172 
L 297.8784 360.039854 
L 299.664 363.043639 
L 301.4496 365.595434 
L 303.2352 367.76434 
L 305.0208 369.611413 
L 306.8064 371.189796 
L 308.592 372.545129 
L 311.2704 374.242905 
L 313.9488 375.629712 
L 316.6272 376.784784 
L 320.1984 378.063236 
L 324.6624 379.36936 
L 330.0192 380.65313 
L 336.2688 381.890217 
L 343.4112 383.060857 
L 351.4464 384.142003 
L 360.3744 385.110889 
L 370.1952 385.951134 
L 381.8016 386.706333 
L 395.1936 387.337118 
L 411.264 387.852303 
L 428.2272 388.203128 
L 428.2272 388.203128 
" clip-path="url(#p7ca5b9ba27)" style="fill: none; stroke: #ff0000; stroke-width: 2; stroke-linecap: square"/>
   </g>
   <g id="line2d_2">
    <path d="M 72 388.8 
L 137.1744 388.690955 
L 140.7456 388.420004 
L 143.424 387.930215 
L 145.2096 387.363543 
L 146.9952 386.519258 
L 148.7808 385.315126 
L 150.5664 383.66979 
L 152.352 381.513291 
L 154.1376 378.797626 
L 155.9232 375.504464 
L 157.7088 371.647353 
L 159.4944 367.267126 
L 161.28 362.421343 
L 163.9584 354.410829 
L 166.6368 345.651456 
L 169.3152 336.244958 
L 172.8864 322.882332 
L 179.136 299.126448 
L 181.8144 290.029622 
L 183.6 284.69658 
L 185.3856 280.071186 
L 187.1712 276.215299 
L 188.9568 273.154884 
L 189.8496 271.923064 
L 190.7424 270.887402 
L 191.6352 270.044472 
L 192.528 269.389936 
L 193.4208 268.918599 
L 194.3136 268.624362 
L 195.2064 268.500103 
L 196.0992 268.537486 
L 196.992 268.726753 
L 197.8848 269.056503 
L 199.6704 270.082748 
L 201.456 271.48835 
L 205.0272 274.81352 
L 207.7056 277.13634 
L 209.4912 278.376247 
L 211.2768 279.30166 
L 213.0624 279.90296 
L 214.848 280.187724 
L 216.6336 280.1454 
L 218.4192 279.712647 
L 219.312 279.309798 
L 220.2048 278.751311 
L 221.0976 278.00807 
L 221.9904 277.047452 
L 222.8832 275.834507 
L 223.776 274.333351 
L 224.6688 272.508704 
L 225.5616 270.327452 
L 226.4544 267.760166 
L 227.3472 264.782478 
L 228.24 261.376272 
L 230.0256 253.242438 
L 231.8112 243.36757 
L 233.5968 231.89248 
L 235.3824 219.082959 
L 238.0608 198.204603 
L 242.5248 163.007379 
L 244.3104 150.325032 
L 246.096 139.209391 
L 247.8816 130.11327 
L 248.7744 126.445296 
L 249.6672 123.419114 
L 250.56 121.06858 
L 251.4528 119.420991 
L 252.3456 118.496608 
L 253.2384 118.308222 
L 254.1312 118.860765 
L 255.024 120.15101 
L 255.9168 122.167371 
L 256.8096 124.889851 
L 257.7024 128.290149 
L 258.5952 132.331982 
L 260.3808 142.158539 
L 262.1664 153.944836 
L 263.952 167.193371 
L 267.5232 195.977142 
L 271.0944 224.672516 
L 273.7728 244.495774 
L 276.4512 262.210712 
L 278.2368 272.768135 
L 280.0224 282.354919 
L 281.808 291.043312 
L 283.5936 298.930718 
L 286.272 309.505954 
L 288.9504 318.918387 
L 291.6288 327.503724 
L 294.3072 335.474581 
L 296.9856 342.882053 
L 299.664 349.641773 
L 302.3424 355.620368 
L 304.128 359.127731 
L 305.9136 362.252858 
L 307.6992 365.022928 
L 309.4848 367.482909 
L 312.1632 370.706522 
L 314.8416 373.506821 
L 317.52 375.968216 
L 320.1984 378.091109 
L 321.984 379.293601 
L 323.7696 380.305981 
L 325.5552 381.118349 
L 327.3408 381.732117 
L 329.1264 382.16161 
L 331.8048 382.520574 
L 335.376 382.667756 
L 340.7328 382.846162 
L 343.4112 383.149359 
L 346.0896 383.652931 
L 349.6608 384.574621 
L 355.9104 386.276926 
L 358.5888 386.809197 
L 361.2672 387.158798 
L 364.8384 387.353933 
L 368.4096 387.309716 
L 380.9088 386.888554 
L 385.3728 387.106149 
L 393.408 387.814881 
L 401.4432 388.445085 
L 407.6928 388.699093 
L 416.6208 388.792869 
L 428.2272 388.789268 
L 428.2272 388.789268 
" clip-path="url(#p7ca5b9ba27)" style="fill: none; stroke: #0000ff; stroke-width: 2; stroke-linecap: square"/>
   </g>
   <g id="patch_102">
    <path d="M 72 388.8 
L 72 43.2 
" style="fill: none; stroke: #000000; stroke-linejoin: miter; stroke-linecap: square"/>
   </g>
   <g id="patch_103">
    <path d="M 518.4 388.8 
L 518.4 43.2 
" style="fill: none; stroke: #000000; stroke-linejoin: miter; stroke-linecap: square"/>
   </g>
   <g id="patch_104">
    <path d="M 72 388.8 
L 518.4 388.8 
" style="fill: none; stroke: #000000; stroke-linejoin: miter; stroke-linecap: square"/>
   </g>
   <g id="patch_105">
    <path d="M 72 43.2 
L 518.4 43.2 
" style="fill: none; stroke: #000000; stroke-linejoin: miter; stroke-linecap: square"/>
   </g>
   <g id="matplotlib.axis_1">
    <g id="xtick_1">
     <g id="line2d_3">
      <defs>
       <path id="m50515c6d4e" d="M 0 0 
L 0 -4 
" style="stroke: #000000; stroke-width: 0.5"/>
      </defs>
      <g>
       <use xlink:href="#m50515c6d4e" x="72" y="388.8" style="stroke: #000000; stroke-width: 0.5"/>
      </g>
     </g>
     <g id="line2d_4">
      <defs>
       <path id="mcb140c61c9" d="M 0 0 
L 0 4 
" style="stroke: #000000; stroke-width: 0.5"/>
      </defs>
      <g>
       <use xlink:href="#mcb140c61c9" x="72" y="43.2" style="stroke: #000000; stroke-width: 0.5"/>
      </g>
     </g>
     <g id="text_1">
      <!-- 0.0 -->
      <g transform="translate(62.458125 401.918125)scale(0.12 -0.12)">
       <defs>
        <path id="DejaVuSans-30" d="M 2034 4250 
Q 1547 4250 1301 3770 
Q 1056 3291 1056 2328 
Q 1056 1369 1301 889 
Q 1547 409 2034 409 
Q 2525 409 2770 889 
Q 3016 1369 3016 2328 
Q 3016 3291 2770 3770 
Q 2525 4250 2034 4250 
z
M 2034 4750 
Q 2819 4750 3233 4129 
Q 3647 3509 3647 2328 
Q 3647 1150 3233 529 
Q 2819 -91 2034 -91 
Q 1250 -91 836 529 
Q 422 1150 422 2328 
Q 422 3509 836 4129 
Q 1250 4750 2034 4750 
z
" transform="scale(0.015625)"/>
        <path id="DejaVuSans-2e" d="M 684 794 
L 1344 794 
L 1344 0 
L 684 0 
L 684 794 
z
" transform="scale(0.015625)"/>
       </defs>
       <use xlink:href="#DejaVuSans-30"/>
       <use xlink:href="#DejaVuSans-2e" x="63.623047"/>
       <use xlink:href="#DejaVuSans-30" x="95.410156"/>
      </g>
     </g>
    </g>
    <g id="xtick_2">
     <g id="line2d_5">
      <g>
       <use xlink:href="#m50515c6d4e" x="161.28" y="388.8" style="stroke: #000000; stroke-width: 0.5"/>
      </g>
     </g>
     <g id="line2d_6">
      <g>
       <use xlink:href="#mcb140c61c9" x="161.28" y="43.2" style="stroke: #000000; stroke-width: 0.5"/>
      </g>
     </g>
     <g id="text_2">
      <!-- 0.1 -->
      <g transform="translate(151.738125 401.918125)scale(0.12 -0.12)">
       <defs>
        <path id="DejaVuSans-31" d="M 794 531 
L 1825 531 
L 1825 4091 
L 703 3866 
L 703 4441 
L 1819 4666 
L 2450 4666 
L 2450 531 
L 3481 531 
L 3481 0 
L 794 0 
L 794 531 
z
" transform="scale(0.015625)"/>
       </defs>
       <use xlink:href="#DejaVuSans-30"/>
       <use xlink:href="#DejaVuSans-2e" x="63.623047"/>
       <use xlink:href="#DejaVuSans-31" x="95.410156"/>
      </g>
     </g>
    </g>
    <g id="xtick_3">
     <g id="line2d_7">
      <g>
       <use xlink:href="#m50515c6d4e" x="250.56" y="388.8" style="stroke: #000000; stroke-width: 0.5"/>
      </g>
     </g>
     <g id="line2d_8">
      <g>
       <use xlink:href="#mcb140c61c9" x="250.56" y="43.2" style="stroke: #000000; stroke-width: 0.5"/>
      </g>
     </g>
     <g id="text_3">
      <!-- 0.2 -->
      <g transform="translate(241.018125 401.918125)scale(0.12 -0.12)">
       <defs>
        <path id="DejaVuSans-32" d="M 1228 531 
L 3431 531 
L 3431 0 
L 469 0 
L 469 531 
Q 828 903 1448 1529 
Q 2069 2156 2228 2338 
Q 2531 2678 2651 2914 
Q 2772 3150 2772 3378 
Q 2772 3750 2511 3984 
Q 2250 4219 1831 4219 
Q 1534 4219 1204 4116 
Q 875 4013 500 3803 
L 500 4441 
Q 881 4594 1212 4672 
Q 1544 4750 1819 4750 
Q 2544 4750 2975 4387 
Q 3406 4025 3406 3419 
Q 3406 3131 3298 2873 
Q 3191 2616 2906 2266 
Q 2828 2175 2409 1742 
Q 1991 1309 1228 531 
z
" transform="scale(0.015625)"/>
       </defs>
       <use xlink:href="#DejaVuSans-30"/>
       <use xlink:href="#DejaVuSans-2e" x="63.623047"/>
       <use xlink:href="#DejaVuSans-32" x="95.410156"/>
      </g>
     </g>
    </g>
    <g id="xtick_4">
     <g id="line2d_9">
      <g>
       <use xlink:href="#m50515c6d4e" x="339.84" y="388.8" style="stroke: #000000; stroke-width: 0.5"/>
      </g>
     </g>
     <g id="line2d_10">
      <g>
       <use xlink:href="#mcb140c61c9" x="339.84" y="43.2" style="stroke: #000000; stroke-width: 0.5"/>
      </g>
     </g>
     <g id="text_4">
      <!-- 0.3 -->
      <g transform="translate(330.298125 401.918125)scale(0.12 -0.12)">
       <defs>
        <path id="DejaVuSans-33" d="M 2597 2516 
Q 3050 2419 3304 2112 
Q 3559 1806 3559 1356 
Q 3559 666 3084 287 
Q 2609 -91 1734 -91 
Q 1441 -91 1130 -33 
Q 819 25 488 141 
L 488 750 
Q 750 597 1062 519 
Q 1375 441 1716 441 
Q 2309 441 2620 675 
Q 2931 909 2931 1356 
Q 2931 1769 2642 2001 
Q 2353 2234 1838 2234 
L 1294 2234 
L 1294 2753 
L 1863 2753 
Q 2328 2753 2575 2939 
Q 2822 3125 2822 3475 
Q 2822 3834 2567 4026 
Q 2313 4219 1838 4219 
Q 1578 4219 1281 4162 
Q 984 4106 628 3988 
L 628 4550 
Q 988 4650 1302 4700 
Q 1616 4750 1894 4750 
Q 2613 4750 3031 4423 
Q 3450 4097 3450 3541 
Q 3450 3153 3228 2886 
Q 3006 2619 2597 2516 
z
" transform="scale(0.015625)"/>
       </defs>
       <use xlink:href="#DejaVuSans-30"/>
       <use xlink:href="#DejaVuSans-2e" x="63.623047"/>
       <use xlink:href="#DejaVuSans-33" x="95.410156"/>
      </g>
     </g>
    </g>
    <g id="xtick_5">
     <g id="line2d_11">
      <g>
       <use xlink:href="#m50515c6d4e" x="429.12" y="388.8" style="stroke: #000000; stroke-width: 0.5"/>
      </g>
     </g>
     <g id="line2d_12">
      <g>
       <use xlink:href="#mcb140c61c9" x="429.12" y="43.2" style="stroke: #000000; stroke-width: 0.5"/>
      </g>
     </g>
     <g id="text_5">
      <!-- 0.4 -->
      <g transform="translate(419.578125 401.918125)scale(0.12 -0.12)">
       <defs>
        <path id="DejaVuSans-34" d="M 2419 4116 
L 825 1625 
L 2419 1625 
L 2419 4116 
z
M 2253 4666 
L 3047 4666 
L 3047 1625 
L 3713 1625 
L 3713 1100 
L 3047 1100 
L 3047 0 
L 2419 0 
L 2419 1100 
L 313 1100 
L 313 1709 
L 2253 4666 
z
" transform="scale(0.015625)"/>
       </defs>
       <use xlink:href="#DejaVuSans-30"/>
       <use xlink:href="#DejaVuSans-2e" x="63.623047"/>
       <use xlink:href="#DejaVuSans-34" x="95.410156"/>
      </g>
     </g>
    </g>
    <g id="xtick_6">
     <g id="line2d_13">
      <g>
       <use xlink:href="#m50515c6d4e" x="518.4" y="388.8" style="stroke: #000000; stroke-width: 0.5"/>
      </g>
     </g>
     <g id="line2d_14">
      <g>
       <use xlink:href="#mcb140c61c9" x="518.4" y="43.2" style="stroke: #000000; stroke-width: 0.5"/>
      </g>
     </g>
     <g id="text_6">
      <!-- 0.5 -->
      <g transform="translate(508.858125 401.918125)scale(0.12 -0.12)">
       <defs>
        <path id="DejaVuSans-35" d="M 691 4666 
L 3169 4666 
L 3169 4134 
L 1269 4134 
L 1269 2991 
Q 1406 3038 1543 3061 
Q 1681 3084 1819 3084 
Q 2600 3084 3056 2656 
Q 3513 2228 3513 1497 
Q 3513 744 3044 326 
Q 2575 -91 1722 -91 
Q 1428 -91 1123 -41 
Q 819 9 494 109 
L 494 744 
Q 775 591 1075 516 
Q 1375 441 1709 441 
Q 2250 441 2565 725 
Q 2881 1009 2881 1497 
Q 2881 1984 2565 2268 
Q 2250 2553 1709 2553 
Q 1456 2553 1204 2497 
Q 953 2441 691 2322 
L 691 4666 
z
" transform="scale(0.015625)"/>
       </defs>
       <use xlink:href="#DejaVuSans-30"/>
       <use xlink:href="#DejaVuSans-2e" x="63.623047"/>
       <use xlink:href="#DejaVuSans-35" x="95.410156"/>
      </g>
     </g>
    </g>
    <g id="text_7">
     <!-- response time -->
     <g transform="translate(252.488437 418.531875)scale(0.12 -0.12)">
      <defs>
       <path id="DejaVuSans-72" d="M 2631 2963 
Q 2534 3019 2420 3045 
Q 2306 3072 2169 3072 
Q 1681 3072 1420 2755 
Q 1159 2438 1159 1844 
L 1159 0 
L 581 0 
L 581 3500 
L 1159 3500 
L 1159 2956 
Q 1341 3275 1631 3429 
Q 1922 3584 2338 3584 
Q 2397 3584 2469 3576 
Q 2541 3569 2628 3553 
L 2631 2963 
z
" transform="scale(0.015625)"/>
       <path id="DejaVuSans-65" d="M 3597 1894 
L 3597 1613 
L 953 1613 
Q 991 1019 1311 708 
Q 1631 397 2203 397 
Q 2534 397 2845 478 
Q 3156 559 3463 722 
L 3463 178 
Q 3153 47 2828 -22 
Q 2503 -91 2169 -91 
Q 1331 -91 842 396 
Q 353 884 353 1716 
Q 353 2575 817 3079 
Q 1281 3584 2069 3584 
Q 2775 3584 3186 3129 
Q 3597 2675 3597 1894 
z
M 3022 2063 
Q 3016 2534 2758 2815 
Q 2500 3097 2075 3097 
Q 1594 3097 1305 2825 
Q 1016 2553 972 2059 
L 3022 2063 
z
" transform="scale(0.015625)"/>
       <path id="DejaVuSans-73" d="M 2834 3397 
L 2834 2853 
Q 2591 2978 2328 3040 
Q 2066 3103 1784 3103 
Q 1356 3103 1142 2972 
Q 928 2841 928 2578 
Q 928 2378 1081 2264 
Q 1234 2150 1697 2047 
L 1894 2003 
Q 2506 1872 2764 1633 
Q 3022 1394 3022 966 
Q 3022 478 2636 193 
Q 2250 -91 1575 -91 
Q 1294 -91 989 -36 
Q 684 19 347 128 
L 347 722 
Q 666 556 975 473 
Q 1284 391 1588 391 
Q 1994 391 2212 530 
Q 2431 669 2431 922 
Q 2431 1156 2273 1281 
Q 2116 1406 1581 1522 
L 1381 1569 
Q 847 1681 609 1914 
Q 372 2147 372 2553 
Q 372 3047 722 3315 
Q 1072 3584 1716 3584 
Q 2034 3584 2315 3537 
Q 2597 3491 2834 3397 
z
" transform="scale(0.015625)"/>
       <path id="DejaVuSans-70" d="M 1159 525 
L 1159 -1331 
L 581 -1331 
L 581 3500 
L 1159 3500 
L 1159 2969 
Q 1341 3281 1617 3432 
Q 1894 3584 2278 3584 
Q 2916 3584 3314 3078 
Q 3713 2572 3713 1747 
Q 3713 922 3314 415 
Q 2916 -91 2278 -91 
Q 1894 -91 1617 61 
Q 1341 213 1159 525 
z
M 3116 1747 
Q 3116 2381 2855 2742 
Q 2594 3103 2138 3103 
Q 1681 3103 1420 2742 
Q 1159 2381 1159 1747 
Q 1159 1113 1420 752 
Q 1681 391 2138 391 
Q 2594 391 2855 752 
Q 3116 1113 3116 1747 
z
" transform="scale(0.015625)"/>
       <path id="DejaVuSans-6f" d="M 1959 3097 
Q 1497 3097 1228 2736 
Q 959 2375 959 1747 
Q 959 1119 1226 758 
Q 1494 397 1959 397 
Q 2419 397 2687 759 
Q 2956 1122 2956 1747 
Q 2956 2369 2687 2733 
Q 2419 3097 1959 3097 
z
M 1959 3584 
Q 2709 3584 3137 3096 
Q 3566 2609 3566 1747 
Q 3566 888 3137 398 
Q 2709 -91 1959 -91 
Q 1206 -91 779 398 
Q 353 888 353 1747 
Q 353 2609 779 3096 
Q 1206 3584 1959 3584 
z
" transform="scale(0.015625)"/>
       <path id="DejaVuSans-6e" d="M 3513 2113 
L 3513 0 
L 2938 0 
L 2938 2094 
Q 2938 2591 2744 2837 
Q 2550 3084 2163 3084 
Q 1697 3084 1428 2787 
Q 1159 2491 1159 1978 
L 1159 0 
L 581 0 
L 581 3500 
L 1159 3500 
L 1159 2956 
Q 1366 3272 1645 3428 
Q 1925 3584 2291 3584 
Q 2894 3584 3203 3211 
Q 3513 2838 3513 2113 
z
" transform="scale(0.015625)"/>
       <path id="DejaVuSans-20" transform="scale(0.015625)"/>
       <path id="DejaVuSans-74" d="M 1172 4494 
L 1172 3500 
L 2356 3500 
L 2356 3053 
L 1172 3053 
L 1172 1153 
Q 1172 725 1289 603 
Q 1406 481 1766 481 
L 2356 481 
L 2356 0 
L 1766 0 
Q 1100 0 847 248 
Q 594 497 594 1153 
L 594 3053 
L 172 3053 
L 172 3500 
L 594 3500 
L 594 4494 
L 1172 4494 
z
" transform="scale(0.015625)"/>
       <path id="DejaVuSans-69" d="M 603 3500 
L 1178 3500 
L 1178 0 
L 603 0 
L 603 3500 
z
M 603 4863 
L 1178 4863 
L 1178 4134 
L 603 4134 
L 603 4863 
z
" transform="scale(0.015625)"/>
       <path id="DejaVuSans-6d" d="M 3328 2828 
Q 3544 3216 3844 3400 
Q 4144 3584 4550 3584 
Q 5097 3584 5394 3201 
Q 5691 2819 5691 2113 
L 5691 0 
L 5113 0 
L 5113 2094 
Q 5113 2597 4934 2840 
Q 4756 3084 4391 3084 
Q 3944 3084 3684 2787 
Q 3425 2491 3425 1978 
L 3425 0 
L 2847 0 
L 2847 2094 
Q 2847 2600 2669 2842 
Q 2491 3084 2119 3084 
Q 1678 3084 1418 2786 
Q 1159 2488 1159 1978 
L 1159 0 
L 581 0 
L 581 3500 
L 1159 3500 
L 1159 2956 
Q 1356 3278 1631 3431 
Q 1906 3584 2284 3584 
Q 2666 3584 2933 3390 
Q 3200 3197 3328 2828 
z
" transform="scale(0.015625)"/>
      </defs>
      <use xlink:href="#DejaVuSans-72"/>
      <use xlink:href="#DejaVuSans-65" x="38.863281"/>
      <use xlink:href="#DejaVuSans-73" x="100.386719"/>
      <use xlink:href="#DejaVuSans-70" x="152.486328"/>
      <use xlink:href="#DejaVuSans-6f" x="215.962891"/>
      <use xlink:href="#DejaVuSans-6e" x="277.144531"/>
      <use xlink:href="#DejaVuSans-73" x="340.523438"/>
      <use xlink:href="#DejaVuSans-65" x="392.623047"/>
      <use xlink:href="#DejaVuSans-20" x="454.146484"/>
      <use xlink:href="#DejaVuSans-74" x="485.933594"/>
      <use xlink:href="#DejaVuSans-69" x="525.142578"/>
      <use xlink:href="#DejaVuSans-6d" x="552.925781"/>
      <use xlink:href="#DejaVuSans-65" x="650.337891"/>
     </g>
    </g>
   </g>
   <g id="matplotlib.axis_2">
    <g id="ytick_1">
     <g id="line2d_15">
      <defs>
       <path id="m4086a87b38" d="M 0 0 
L 4 0 
" style="stroke: #000000; stroke-width: 0.5"/>
      </defs>
      <g>
       <use xlink:href="#m4086a87b38" x="72" y="388.8" style="stroke: #000000; stroke-width: 0.5"/>
      </g>
     </g>
     <g id="line2d_16">
      <defs>
       <path id="mf400ed9a93" d="M 0 0 
L -4 0 
" style="stroke: #000000; stroke-width: 0.5"/>
      </defs>
      <g>
       <use xlink:href="#mf400ed9a93" x="518.4" y="388.8" style="stroke: #000000; stroke-width: 0.5"/>
      </g>
     </g>
     <g id="text_8">
      <!-- 0 -->
      <g transform="translate(60.365 392.11125)scale(0.12 -0.12)">
       <use xlink:href="#DejaVuSans-30"/>
      </g>
     </g>
    </g>
    <g id="ytick_2">
     <g id="line2d_17">
      <g>
       <use xlink:href="#m4086a87b38" x="72" y="345.6" style="stroke: #000000; stroke-width: 0.5"/>
      </g>
     </g>
     <g id="line2d_18">
      <g>
       <use xlink:href="#mf400ed9a93" x="518.4" y="345.6" style="stroke: #000000; stroke-width: 0.5"/>
      </g>
     </g>
     <g id="text_9">
      <!-- 2 -->
      <g transform="translate(60.365 348.91125)scale(0.12 -0.12)">
       <use xlink:href="#DejaVuSans-32"/>
      </g>
     </g>
    </g>
    <g id="ytick_3">
     <g id="line2d_19">
      <g>
       <use xlink:href="#m4086a87b38" x="72" y="302.4" style="stroke: #000000; stroke-width: 0.5"/>
      </g>
     </g>
     <g id="line2d_20">
      <g>
       <use xlink:href="#mf400ed9a93" x="518.4" y="302.4" style="stroke: #000000; stroke-width: 0.5"/>
      </g>
     </g>
     <g id="text_10">
      <!-- 4 -->
      <g transform="translate(60.365 305.71125)scale(0.12 -0.12)">
       <use xlink:href="#DejaVuSans-34"/>
      </g>
     </g>
    </g>
    <g id="ytick_4">
     <g id="line2d_21">
      <g>
       <use xlink:href="#m4086a87b38" x="72" y="259.2" style="stroke: #000000; stroke-width: 0.5"/>
      </g>
     </g>
     <g id="line2d_22">
      <g>
       <use xlink:href="#mf400ed9a93" x="518.4" y="259.2" style="stroke: #000000; stroke-width: 0.5"/>
      </g>
     </g>
     <g id="text_11">
      <!-- 6 -->
      <g transform="translate(60.365 262.51125)scale(0.12 -0.12)">
       <defs>
        <path id="DejaVuSans-36" d="M 2113 2584 
Q 1688 2584 1439 2293 
Q 1191 2003 1191 1497 
Q 1191 994 1439 701 
Q 1688 409 2113 409 
Q 2538 409 2786 701 
Q 3034 994 3034 1497 
Q 3034 2003 2786 2293 
Q 2538 2584 2113 2584 
z
M 3366 4563 
L 3366 3988 
Q 3128 4100 2886 4159 
Q 2644 4219 2406 4219 
Q 1781 4219 1451 3797 
Q 1122 3375 1075 2522 
Q 1259 2794 1537 2939 
Q 1816 3084 2150 3084 
Q 2853 3084 3261 2657 
Q 3669 2231 3669 1497 
Q 3669 778 3244 343 
Q 2819 -91 2113 -91 
Q 1303 -91 875 529 
Q 447 1150 447 2328 
Q 447 3434 972 4092 
Q 1497 4750 2381 4750 
Q 2619 4750 2861 4703 
Q 3103 4656 3366 4563 
z
" transform="scale(0.015625)"/>
       </defs>
       <use xlink:href="#DejaVuSans-36"/>
      </g>
     </g>
    </g>
    <g id="ytick_5">
     <g id="line2d_23">
      <g>
       <use xlink:href="#m4086a87b38" x="72" y="216" style="stroke: #000000; stroke-width: 0.5"/>
      </g>
     </g>
     <g id="line2d_24">
      <g>
       <use xlink:href="#mf400ed9a93" x="518.4" y="216" style="stroke: #000000; stroke-width: 0.5"/>
      </g>
     </g>
     <g id="text_12">
      <!-- 8 -->
      <g transform="translate(60.365 219.31125)scale(0.12 -0.12)">
       <defs>
        <path id="DejaVuSans-38" d="M 2034 2216 
Q 1584 2216 1326 1975 
Q 1069 1734 1069 1313 
Q 1069 891 1326 650 
Q 1584 409 2034 409 
Q 2484 409 2743 651 
Q 3003 894 3003 1313 
Q 3003 1734 2745 1975 
Q 2488 2216 2034 2216 
z
M 1403 2484 
Q 997 2584 770 2862 
Q 544 3141 544 3541 
Q 544 4100 942 4425 
Q 1341 4750 2034 4750 
Q 2731 4750 3128 4425 
Q 3525 4100 3525 3541 
Q 3525 3141 3298 2862 
Q 3072 2584 2669 2484 
Q 3125 2378 3379 2068 
Q 3634 1759 3634 1313 
Q 3634 634 3220 271 
Q 2806 -91 2034 -91 
Q 1263 -91 848 271 
Q 434 634 434 1313 
Q 434 1759 690 2068 
Q 947 2378 1403 2484 
z
M 1172 3481 
Q 1172 3119 1398 2916 
Q 1625 2713 2034 2713 
Q 2441 2713 2670 2916 
Q 2900 3119 2900 3481 
Q 2900 3844 2670 4047 
Q 2441 4250 2034 4250 
Q 1625 4250 1398 4047 
Q 1172 3844 1172 3481 
z
" transform="scale(0.015625)"/>
       </defs>
       <use xlink:href="#DejaVuSans-38"/>
      </g>
     </g>
    </g>
    <g id="ytick_6">
     <g id="line2d_25">
      <g>
       <use xlink:href="#m4086a87b38" x="72" y="172.8" style="stroke: #000000; stroke-width: 0.5"/>
      </g>
     </g>
     <g id="line2d_26">
      <g>
       <use xlink:href="#mf400ed9a93" x="518.4" y="172.8" style="stroke: #000000; stroke-width: 0.5"/>
      </g>
     </g>
     <g id="text_13">
      <!-- 10 -->
      <g transform="translate(52.73 176.11125)scale(0.12 -0.12)">
       <use xlink:href="#DejaVuSans-31"/>
       <use xlink:href="#DejaVuSans-30" x="63.623047"/>
      </g>
     </g>
    </g>
    <g id="ytick_7">
     <g id="line2d_27">
      <g>
       <use xlink:href="#m4086a87b38" x="72" y="129.6" style="stroke: #000000; stroke-width: 0.5"/>
      </g>
     </g>
     <g id="line2d_28">
      <g>
       <use xlink:href="#mf400ed9a93" x="518.4" y="129.6" style="stroke: #000000; stroke-width: 0.5"/>
      </g>
     </g>
     <g id="text_14">
      <!-- 12 -->
      <g transform="translate(52.73 132.91125)scale(0.12 -0.12)">
       <use xlink:href="#DejaVuSans-31"/>
       <use xlink:href="#DejaVuSans-32" x="63.623047"/>
      </g>
     </g>
    </g>
    <g id="ytick_8">
     <g id="line2d_29">
      <g>
       <use xlink:href="#m4086a87b38" x="72" y="86.4" style="stroke: #000000; stroke-width: 0.5"/>
      </g>
     </g>
     <g id="line2d_30">
      <g>
       <use xlink:href="#mf400ed9a93" x="518.4" y="86.4" style="stroke: #000000; stroke-width: 0.5"/>
      </g>
     </g>
     <g id="text_15">
      <!-- 14 -->
      <g transform="translate(52.73 89.71125)scale(0.12 -0.12)">
       <use xlink:href="#DejaVuSans-31"/>
       <use xlink:href="#DejaVuSans-34" x="63.623047"/>
      </g>
     </g>
    </g>
    <g id="ytick_9">
     <g id="line2d_31">
      <g>
       <use xlink:href="#m4086a87b38" x="72" y="43.2" style="stroke: #000000; stroke-width: 0.5"/>
      </g>
     </g>
     <g id="line2d_32">
      <g>
       <use xlink:href="#mf400ed9a93" x="518.4" y="43.2" style="stroke: #000000; stroke-width: 0.5"/>
      </g>
     </g>
     <g id="text_16">
      <!-- 16 -->
      <g transform="translate(52.73 46.51125)scale(0.12 -0.12)">
       <use xlink:href="#DejaVuSans-31"/>
       <use xlink:href="#DejaVuSans-36" x="63.623047"/>
      </g>
     </g>
    </g>
    <g id="text_17">
     <!-- probability -->
     <g transform="translate(45.234375 248.010938)rotate(-90)scale(0.12 -0.12)">
      <defs>
       <path id="DejaVuSans-62" d="M 3116 1747 
Q 3116 2381 2855 2742 
Q 2594 3103 2138 3103 
Q 1681 3103 1420 2742 
Q 1159 2381 1159 1747 
Q 1159 1113 1420 752 
Q 1681 391 2138 391 
Q 2594 391 2855 752 
Q 3116 1113 3116 1747 
z
M 1159 2969 
Q 1341 3281 1617 3432 
Q 1894 3584 2278 3584 
Q 2916 3584 3314 3078 
Q 3713 2572 3713 1747 
Q 3713 922 3314 415 
Q 2916 -91 2278 -91 
Q 1894 -91 1617 61 
Q 1341 213 1159 525 
L 1159 0 
L 581 0 
L 581 4863 
L 1159 4863 
L 1159 2969 
z
" transform="scale(0.015625)"/>
       <path id="DejaVuSans-61" d="M 2194 1759 
Q 1497 1759 1228 1600 
Q 959 1441 959 1056 
Q 959 750 1161 570 
Q 1363 391 1709 391 
Q 2188 391 2477 730 
Q 2766 1069 2766 1631 
L 2766 1759 
L 2194 1759 
z
M 3341 1997 
L 3341 0 
L 2766 0 
L 2766 531 
Q 2569 213 2275 61 
Q 1981 -91 1556 -91 
Q 1019 -91 701 211 
Q 384 513 384 1019 
Q 384 1609 779 1909 
Q 1175 2209 1959 2209 
L 2766 2209 
L 2766 2266 
Q 2766 2663 2505 2880 
Q 2244 3097 1772 3097 
Q 1472 3097 1187 3025 
Q 903 2953 641 2809 
L 641 3341 
Q 956 3463 1253 3523 
Q 1550 3584 1831 3584 
Q 2591 3584 2966 3190 
Q 3341 2797 3341 1997 
z
" transform="scale(0.015625)"/>
       <path id="DejaVuSans-6c" d="M 603 4863 
L 1178 4863 
L 1178 0 
L 603 0 
L 603 4863 
z
" transform="scale(0.015625)"/>
       <path id="DejaVuSans-79" d="M 2059 -325 
Q 1816 -950 1584 -1140 
Q 1353 -1331 966 -1331 
L 506 -1331 
L 506 -850 
L 844 -850 
Q 1081 -850 1212 -737 
Q 1344 -625 1503 -206 
L 1606 56 
L 191 3500 
L 800 3500 
L 1894 763 
L 2988 3500 
L 3597 3500 
L 2059 -325 
z
" transform="scale(0.015625)"/>
      </defs>
      <use xlink:href="#DejaVuSans-70"/>
      <use xlink:href="#DejaVuSans-72" x="63.476562"/>
      <use xlink:href="#DejaVuSans-6f" x="102.339844"/>
      <use xlink:href="#DejaVuSans-62" x="163.521484"/>
      <use xlink:href="#DejaVuSans-61" x="226.998047"/>
      <use xlink:href="#DejaVuSans-62" x="288.277344"/>
      <use xlink:href="#DejaVuSans-69" x="351.753906"/>
      <use xlink:href="#DejaVuSans-6c" x="379.537109"/>
      <use xlink:href="#DejaVuSans-69" x="407.320312"/>
      <use xlink:href="#DejaVuSans-74" x="435.103516"/>
      <use xlink:href="#DejaVuSans-79" x="474.3125"/>
     </g>
    </g>
   </g>
   <g id="text_18">
    <!-- saccade Distribution gamma 170929 -->
    <g transform="translate(161.93025 38.2)scale(0.144 -0.144)">
     <defs>
      <path id="DejaVuSans-63" d="M 3122 3366 
L 3122 2828 
Q 2878 2963 2633 3030 
Q 2388 3097 2138 3097 
Q 1578 3097 1268 2742 
Q 959 2388 959 1747 
Q 959 1106 1268 751 
Q 1578 397 2138 397 
Q 2388 397 2633 464 
Q 2878 531 3122 666 
L 3122 134 
Q 2881 22 2623 -34 
Q 2366 -91 2075 -91 
Q 1284 -91 818 406 
Q 353 903 353 1747 
Q 353 2603 823 3093 
Q 1294 3584 2113 3584 
Q 2378 3584 2631 3529 
Q 2884 3475 3122 3366 
z
" transform="scale(0.015625)"/>
      <path id="DejaVuSans-64" d="M 2906 2969 
L 2906 4863 
L 3481 4863 
L 3481 0 
L 2906 0 
L 2906 525 
Q 2725 213 2448 61 
Q 2172 -91 1784 -91 
Q 1150 -91 751 415 
Q 353 922 353 1747 
Q 353 2572 751 3078 
Q 1150 3584 1784 3584 
Q 2172 3584 2448 3432 
Q 2725 3281 2906 2969 
z
M 947 1747 
Q 947 1113 1208 752 
Q 1469 391 1925 391 
Q 2381 391 2643 752 
Q 2906 1113 2906 1747 
Q 2906 2381 2643 2742 
Q 2381 3103 1925 3103 
Q 1469 3103 1208 2742 
Q 947 2381 947 1747 
z
" transform="scale(0.015625)"/>
      <path id="DejaVuSans-44" d="M 1259 4147 
L 1259 519 
L 2022 519 
Q 2988 519 3436 956 
Q 3884 1394 3884 2338 
Q 3884 3275 3436 3711 
Q 2988 4147 2022 4147 
L 1259 4147 
z
M 628 4666 
L 1925 4666 
Q 3281 4666 3915 4102 
Q 4550 3538 4550 2338 
Q 4550 1131 3912 565 
Q 3275 0 1925 0 
L 628 0 
L 628 4666 
z
" transform="scale(0.015625)"/>
      <path id="DejaVuSans-75" d="M 544 1381 
L 544 3500 
L 1119 3500 
L 1119 1403 
Q 1119 906 1312 657 
Q 1506 409 1894 409 
Q 2359 409 2629 706 
Q 2900 1003 2900 1516 
L 2900 3500 
L 3475 3500 
L 3475 0 
L 2900 0 
L 2900 538 
Q 2691 219 2414 64 
Q 2138 -91 1772 -91 
Q 1169 -91 856 284 
Q 544 659 544 1381 
z
M 1991 3584 
L 1991 3584 
z
" transform="scale(0.015625)"/>
      <path id="DejaVuSans-67" d="M 2906 1791 
Q 2906 2416 2648 2759 
Q 2391 3103 1925 3103 
Q 1463 3103 1205 2759 
Q 947 2416 947 1791 
Q 947 1169 1205 825 
Q 1463 481 1925 481 
Q 2391 481 2648 825 
Q 2906 1169 2906 1791 
z
M 3481 434 
Q 3481 -459 3084 -895 
Q 2688 -1331 1869 -1331 
Q 1566 -1331 1297 -1286 
Q 1028 -1241 775 -1147 
L 775 -588 
Q 1028 -725 1275 -790 
Q 1522 -856 1778 -856 
Q 2344 -856 2625 -561 
Q 2906 -266 2906 331 
L 2906 616 
Q 2728 306 2450 153 
Q 2172 0 1784 0 
Q 1141 0 747 490 
Q 353 981 353 1791 
Q 353 2603 747 3093 
Q 1141 3584 1784 3584 
Q 2172 3584 2450 3431 
Q 2728 3278 2906 2969 
L 2906 3500 
L 3481 3500 
L 3481 434 
z
" transform="scale(0.015625)"/>
      <path id="DejaVuSans-37" d="M 525 4666 
L 3525 4666 
L 3525 4397 
L 1831 0 
L 1172 0 
L 2766 4134 
L 525 4134 
L 525 4666 
z
" transform="scale(0.015625)"/>
      <path id="DejaVuSans-39" d="M 703 97 
L 703 672 
Q 941 559 1184 500 
Q 1428 441 1663 441 
Q 2288 441 2617 861 
Q 2947 1281 2994 2138 
Q 2813 1869 2534 1725 
Q 2256 1581 1919 1581 
Q 1219 1581 811 2004 
Q 403 2428 403 3163 
Q 403 3881 828 4315 
Q 1253 4750 1959 4750 
Q 2769 4750 3195 4129 
Q 3622 3509 3622 2328 
Q 3622 1225 3098 567 
Q 2575 -91 1691 -91 
Q 1453 -91 1209 -44 
Q 966 3 703 97 
z
M 1959 2075 
Q 2384 2075 2632 2365 
Q 2881 2656 2881 3163 
Q 2881 3666 2632 3958 
Q 2384 4250 1959 4250 
Q 1534 4250 1286 3958 
Q 1038 3666 1038 3163 
Q 1038 2656 1286 2365 
Q 1534 2075 1959 2075 
z
" transform="scale(0.015625)"/>
     </defs>
     <use xlink:href="#DejaVuSans-73"/>
     <use xlink:href="#DejaVuSans-61" x="52.099609"/>
     <use xlink:href="#DejaVuSans-63" x="113.378906"/>
     <use xlink:href="#DejaVuSans-63" x="168.359375"/>
     <use xlink:href="#DejaVuSans-61" x="223.339844"/>
     <use xlink:href="#DejaVuSans-64" x="284.619141"/>
     <use xlink:href="#DejaVuSans-65" x="348.095703"/>
     <use xlink:href="#DejaVuSans-20" x="409.619141"/>
     <use xlink:href="#DejaVuSans-44" x="441.40625"/>
     <use xlink:href="#DejaVuSans-69" x="518.408203"/>
     <use xlink:href="#DejaVuSans-73" x="546.191406"/>
     <use xlink:href="#DejaVuSans-74" x="598.291016"/>
     <use xlink:href="#DejaVuSans-72" x="637.5"/>
     <use xlink:href="#DejaVuSans-69" x="678.613281"/>
     <use xlink:href="#DejaVuSans-62" x="706.396484"/>
     <use xlink:href="#DejaVuSans-75" x="769.873047"/>
     <use xlink:href="#DejaVuSans-74" x="833.251953"/>
     <use xlink:href="#DejaVuSans-69" x="872.460938"/>
     <use xlink:href="#DejaVuSans-6f" x="900.244141"/>
     <use xlink:href="#DejaVuSans-6e" x="961.425781"/>
     <use xlink:href="#DejaVuSans-20" x="1024.804688"/>
     <use xlink:href="#DejaVuSans-67" x="1056.591797"/>
     <use xlink:href="#DejaVuSans-61" x="1120.068359"/>
     <use xlink:href="#DejaVuSans-6d" x="1181.347656"/>
     <use xlink:href="#DejaVuSans-6d" x="1278.759766"/>
     <use xlink:href="#DejaVuSans-61" x="1376.171875"/>
     <use xlink:href="#DejaVuSans-20" x="1437.451172"/>
     <use xlink:href="#DejaVuSans-31" x="1469.238281"/>
     <use xlink:href="#DejaVuSans-37" x="1532.861328"/>
     <use xlink:href="#DejaVuSans-30" x="1596.484375"/>
     <use xlink:href="#DejaVuSans-39" x="1660.107422"/>
     <use xlink:href="#DejaVuSans-32" x="1723.730469"/>
     <use xlink:href="#DejaVuSans-39" x="1787.353516"/>
    </g>
   </g>
   <g id="legend_1">
    <g id="patch_106">
     <path d="M 380.439 118.1295 
L 511.2 118.1295 
L 511.2 50.4 
L 380.439 50.4 
z
" style="fill: #ffffff; stroke: #000000; stroke-linejoin: miter"/>
    </g>
    <g id="patch_107">
     <path d="M 386.199 67.10175 
L 414.999 67.10175 
L 414.999 57.02175 
L 386.199 57.02175 
z
" style="fill: #0000ff; opacity: 0.2; stroke: #0000ff; stroke-linejoin: miter"/>
    </g>
    <g id="text_19">
     <!--  rt -->
     <g transform="translate(426.519 67.10175)scale(0.144 -0.144)">
      <use xlink:href="#DejaVuSans-20"/>
      <use xlink:href="#DejaVuSans-72" x="31.787109"/>
      <use xlink:href="#DejaVuSans-74" x="72.900391"/>
     </g>
    </g>
    <g id="line2d_33">
     <path d="M 390.519 83.19825 
L 410.679 83.19825 
" style="fill: none; stroke: #ff0000; stroke-width: 2; stroke-linecap: square"/>
    </g>
    <g id="text_20">
     <!--  artificial rt -->
     <g transform="translate(426.519 88.23825)scale(0.144 -0.144)">
      <defs>
       <path id="DejaVuSans-66" d="M 2375 4863 
L 2375 4384 
L 1825 4384 
Q 1516 4384 1395 4259 
Q 1275 4134 1275 3809 
L 1275 3500 
L 2222 3500 
L 2222 3053 
L 1275 3053 
L 1275 0 
L 697 0 
L 697 3053 
L 147 3053 
L 147 3500 
L 697 3500 
L 697 3744 
Q 697 4328 969 4595 
Q 1241 4863 1831 4863 
L 2375 4863 
z
" transform="scale(0.015625)"/>
      </defs>
      <use xlink:href="#DejaVuSans-20"/>
      <use xlink:href="#DejaVuSans-61" x="31.787109"/>
      <use xlink:href="#DejaVuSans-72" x="93.066406"/>
      <use xlink:href="#DejaVuSans-74" x="134.179688"/>
      <use xlink:href="#DejaVuSans-69" x="173.388672"/>
      <use xlink:href="#DejaVuSans-66" x="201.171875"/>
      <use xlink:href="#DejaVuSans-69" x="236.376953"/>
      <use xlink:href="#DejaVuSans-63" x="264.160156"/>
      <use xlink:href="#DejaVuSans-69" x="319.140625"/>
      <use xlink:href="#DejaVuSans-61" x="346.923828"/>
      <use xlink:href="#DejaVuSans-6c" x="408.203125"/>
      <use xlink:href="#DejaVuSans-20" x="435.986328"/>
      <use xlink:href="#DejaVuSans-72" x="467.773438"/>
      <use xlink:href="#DejaVuSans-74" x="508.886719"/>
     </g>
    </g>
    <g id="line2d_34">
     <path d="M 390.519 104.33475 
L 410.679 104.33475 
" style="fill: none; stroke: #0000ff; stroke-width: 2; stroke-linecap: square"/>
    </g>
    <g id="text_21">
     <!-- original rt -->
     <g transform="translate(426.519 109.37475)scale(0.144 -0.144)">
      <use xlink:href="#DejaVuSans-6f"/>
      <use xlink:href="#DejaVuSans-72" x="61.181641"/>
      <use xlink:href="#DejaVuSans-69" x="102.294922"/>
      <use xlink:href="#DejaVuSans-67" x="130.078125"/>
      <use xlink:href="#DejaVuSans-69" x="193.554688"/>
      <use xlink:href="#DejaVuSans-6e" x="221.337891"/>
      <use xlink:href="#DejaVuSans-61" x="284.716797"/>
      <use xlink:href="#DejaVuSans-6c" x="345.996094"/>
      <use xlink:href="#DejaVuSans-20" x="373.779297"/>
      <use xlink:href="#DejaVuSans-72" x="405.566406"/>
      <use xlink:href="#DejaVuSans-74" x="446.679688"/>
     </g>
    </g>
   </g>
  </g>
 </g>
 <defs>
  <clipPath id="p7ca5b9ba27">
   <rect x="72" y="43.2" width="446.4" height="345.6"/>
  </clipPath>
 </defs>
</svg>
