<?xml version="1.0" encoding="utf-8" standalone="no"?>
<!DOCTYPE svg PUBLIC "-//W3C//DTD SVG 1.1//EN"
  "http://www.w3.org/Graphics/SVG/1.1/DTD/svg11.dtd">
<svg xmlns:xlink="http://www.w3.org/1999/xlink" width="576pt" height="288pt" viewBox="0 0 576 288" xmlns="http://www.w3.org/2000/svg" version="1.1">
 <metadata>
  <rdf:RDF xmlns:dc="http://purl.org/dc/elements/1.1/" xmlns:cc="http://creativecommons.org/ns#" xmlns:rdf="http://www.w3.org/1999/02/22-rdf-syntax-ns#">
   <cc:Work>
    <dc:type rdf:resource="http://purl.org/dc/dcmitype/StillImage"/>
    <dc:date>2023-03-08T13:00:33.234686</dc:date>
    <dc:format>image/svg+xml</dc:format>
    <dc:creator>
     <cc:Agent>
      <dc:title>Matplotlib v3.7.0, https://matplotlib.org/</dc:title>
     </cc:Agent>
    </dc:creator>
   </cc:Work>
  </rdf:RDF>
 </metadata>
 <defs>
  <style type="text/css">*{stroke-linejoin: round; stroke-linecap: butt}</style>
 </defs>
 <g id="figure_1">
  <g id="patch_1">
   <path d="M 0 288 
L 576 288 
L 576 0 
L 0 0 
z
" style="fill: #ffffff"/>
  </g>
  <g id="axes_1">
   <g id="patch_2">
    <path d="M 72 259.2 
L 518.4 259.2 
L 518.4 28.8 
L 72 28.8 
z
" style="fill: #ffffff"/>
   </g>
   <g id="patch_3">
    <path d="M 72 259.2 
L 77.58 259.2 
L 77.58 259.2 
L 72 259.2 
z
" clip-path="url(#pd798ef6ffb)" style="fill: #ff0000; opacity: 0.2; stroke: #ffff00; stroke-linejoin: miter"/>
   </g>
   <g id="patch_4">
    <path d="M 77.58 259.2 
L 83.16 259.2 
L 83.16 259.2 
L 77.58 259.2 
z
" clip-path="url(#pd798ef6ffb)" style="fill: #ff0000; opacity: 0.2; stroke: #ffff00; stroke-linejoin: miter"/>
   </g>
   <g id="patch_5">
    <path d="M 83.16 259.2 
L 88.74 259.2 
L 88.74 259.2 
L 83.16 259.2 
z
" clip-path="url(#pd798ef6ffb)" style="fill: #ff0000; opacity: 0.2; stroke: #ffff00; stroke-linejoin: miter"/>
   </g>
   <g id="patch_6">
    <path d="M 88.74 259.2 
L 94.32 259.2 
L 94.32 259.2 
L 88.74 259.2 
z
" clip-path="url(#pd798ef6ffb)" style="fill: #ff0000; opacity: 0.2; stroke: #ffff00; stroke-linejoin: miter"/>
   </g>
   <g id="patch_7">
    <path d="M 94.32 259.2 
L 99.9 259.2 
L 99.9 259.2 
L 94.32 259.2 
z
" clip-path="url(#pd798ef6ffb)" style="fill: #ff0000; opacity: 0.2; stroke: #ffff00; stroke-linejoin: miter"/>
   </g>
   <g id="patch_8">
    <path d="M 99.9 259.2 
L 105.48 259.2 
L 105.48 259.2 
L 99.9 259.2 
z
" clip-path="url(#pd798ef6ffb)" style="fill: #ff0000; opacity: 0.2; stroke: #ffff00; stroke-linejoin: miter"/>
   </g>
   <g id="patch_9">
    <path d="M 105.48 259.2 
L 111.06 259.2 
L 111.06 259.2 
L 105.48 259.2 
z
" clip-path="url(#pd798ef6ffb)" style="fill: #ff0000; opacity: 0.2; stroke: #ffff00; stroke-linejoin: miter"/>
   </g>
   <g id="patch_10">
    <path d="M 111.06 259.2 
L 116.64 259.2 
L 116.64 259.2 
L 111.06 259.2 
z
" clip-path="url(#pd798ef6ffb)" style="fill: #ff0000; opacity: 0.2; stroke: #ffff00; stroke-linejoin: miter"/>
   </g>
   <g id="patch_11">
    <path d="M 116.64 259.2 
L 122.22 259.2 
L 122.22 259.2 
L 116.64 259.2 
z
" clip-path="url(#pd798ef6ffb)" style="fill: #ff0000; opacity: 0.2; stroke: #ffff00; stroke-linejoin: miter"/>
   </g>
   <g id="patch_12">
    <path d="M 122.22 259.2 
L 127.8 259.2 
L 127.8 259.2 
L 122.22 259.2 
z
" clip-path="url(#pd798ef6ffb)" style="fill: #ff0000; opacity: 0.2; stroke: #ffff00; stroke-linejoin: miter"/>
   </g>
   <g id="patch_13">
    <path d="M 127.8 259.2 
L 133.38 259.2 
L 133.38 259.2 
L 127.8 259.2 
z
" clip-path="url(#pd798ef6ffb)" style="fill: #ff0000; opacity: 0.2; stroke: #ffff00; stroke-linejoin: miter"/>
   </g>
   <g id="patch_14">
    <path d="M 133.38 259.2 
L 138.96 259.2 
L 138.96 259.2 
L 133.38 259.2 
z
" clip-path="url(#pd798ef6ffb)" style="fill: #ff0000; opacity: 0.2; stroke: #ffff00; stroke-linejoin: miter"/>
   </g>
   <g id="patch_15">
    <path d="M 138.96 259.2 
L 144.54 259.2 
L 144.54 259.2 
L 138.96 259.2 
z
" clip-path="url(#pd798ef6ffb)" style="fill: #ff0000; opacity: 0.2; stroke: #ffff00; stroke-linejoin: miter"/>
   </g>
   <g id="patch_16">
    <path d="M 144.54 259.2 
L 150.12 259.2 
L 150.12 259.2 
L 144.54 259.2 
z
" clip-path="url(#pd798ef6ffb)" style="fill: #ff0000; opacity: 0.2; stroke: #ffff00; stroke-linejoin: miter"/>
   </g>
   <g id="patch_17">
    <path d="M 150.12 259.2 
L 155.7 259.2 
L 155.7 249.825678 
L 150.12 249.825678 
z
" clip-path="url(#pd798ef6ffb)" style="fill: #ff0000; opacity: 0.2; stroke: #ffff00; stroke-linejoin: miter"/>
   </g>
   <g id="patch_18">
    <path d="M 155.7 259.2 
L 161.28 259.2 
L 161.28 256.075226 
L 155.7 256.075226 
z
" clip-path="url(#pd798ef6ffb)" style="fill: #ff0000; opacity: 0.2; stroke: #ffff00; stroke-linejoin: miter"/>
   </g>
   <g id="patch_19">
    <path d="M 161.28 259.2 
L 166.86 259.2 
L 166.86 256.075226 
L 161.28 256.075226 
z
" clip-path="url(#pd798ef6ffb)" style="fill: #ff0000; opacity: 0.2; stroke: #ffff00; stroke-linejoin: miter"/>
   </g>
   <g id="patch_20">
    <path d="M 166.86 259.2 
L 172.44 259.2 
L 172.44 257.116817 
L 166.86 257.116817 
z
" clip-path="url(#pd798ef6ffb)" style="fill: #ff0000; opacity: 0.2; stroke: #ffff00; stroke-linejoin: miter"/>
   </g>
   <g id="patch_21">
    <path d="M 172.44 259.2 
L 178.02 259.2 
L 178.02 258.158409 
L 172.44 258.158409 
z
" clip-path="url(#pd798ef6ffb)" style="fill: #ff0000; opacity: 0.2; stroke: #ffff00; stroke-linejoin: miter"/>
   </g>
   <g id="patch_22">
    <path d="M 178.02 259.2 
L 183.6 259.2 
L 183.6 252.950452 
L 178.02 252.950452 
z
" clip-path="url(#pd798ef6ffb)" style="fill: #ff0000; opacity: 0.2; stroke: #ffff00; stroke-linejoin: miter"/>
   </g>
   <g id="patch_23">
    <path d="M 183.6 259.2 
L 189.18 259.2 
L 189.18 252.950452 
L 183.6 252.950452 
z
" clip-path="url(#pd798ef6ffb)" style="fill: #ff0000; opacity: 0.2; stroke: #ffff00; stroke-linejoin: miter"/>
   </g>
   <g id="patch_24">
    <path d="M 189.18 259.2 
L 194.76 259.2 
L 194.76 251.908861 
L 189.18 251.908861 
z
" clip-path="url(#pd798ef6ffb)" style="fill: #ff0000; opacity: 0.2; stroke: #ffff00; stroke-linejoin: miter"/>
   </g>
   <g id="patch_25">
    <path d="M 194.76 259.2 
L 200.34 259.2 
L 200.34 248.784087 
L 194.76 248.784087 
z
" clip-path="url(#pd798ef6ffb)" style="fill: #ff0000; opacity: 0.2; stroke: #ffff00; stroke-linejoin: miter"/>
   </g>
   <g id="patch_26">
    <path d="M 200.34 259.2 
L 205.92 259.2 
L 205.92 248.784087 
L 200.34 248.784087 
z
" clip-path="url(#pd798ef6ffb)" style="fill: #ff0000; opacity: 0.2; stroke: #ffff00; stroke-linejoin: miter"/>
   </g>
   <g id="patch_27">
    <path d="M 205.92 259.2 
L 211.5 259.2 
L 211.5 246.700904 
L 205.92 246.700904 
z
" clip-path="url(#pd798ef6ffb)" style="fill: #ff0000; opacity: 0.2; stroke: #ffff00; stroke-linejoin: miter"/>
   </g>
   <g id="patch_28">
    <path d="M 211.5 259.2 
L 217.08 259.2 
L 217.08 237.326582 
L 211.5 237.326582 
z
" clip-path="url(#pd798ef6ffb)" style="fill: #ff0000; opacity: 0.2; stroke: #ffff00; stroke-linejoin: miter"/>
   </g>
   <g id="patch_29">
    <path d="M 217.08 259.2 
L 222.66 259.2 
L 222.66 234.201808 
L 217.08 234.201808 
z
" clip-path="url(#pd798ef6ffb)" style="fill: #ff0000; opacity: 0.2; stroke: #ffff00; stroke-linejoin: miter"/>
   </g>
   <g id="patch_30">
    <path d="M 222.66 259.2 
L 228.24 259.2 
L 228.24 237.326582 
L 222.66 237.326582 
z
" clip-path="url(#pd798ef6ffb)" style="fill: #ff0000; opacity: 0.2; stroke: #ffff00; stroke-linejoin: miter"/>
   </g>
   <g id="patch_31">
    <path d="M 228.24 259.2 
L 233.82 259.2 
L 233.82 227.95226 
L 228.24 227.95226 
z
" clip-path="url(#pd798ef6ffb)" style="fill: #ff0000; opacity: 0.2; stroke: #ffff00; stroke-linejoin: miter"/>
   </g>
   <g id="patch_32">
    <path d="M 233.82 259.2 
L 239.4 259.2 
L 239.4 230.035443 
L 233.82 230.035443 
z
" clip-path="url(#pd798ef6ffb)" style="fill: #ff0000; opacity: 0.2; stroke: #ffff00; stroke-linejoin: miter"/>
   </g>
   <g id="patch_33">
    <path d="M 239.4 259.2 
L 244.98 259.2 
L 244.98 233.160217 
L 239.4 233.160217 
z
" clip-path="url(#pd798ef6ffb)" style="fill: #ff0000; opacity: 0.2; stroke: #ffff00; stroke-linejoin: miter"/>
   </g>
   <g id="patch_34">
    <path d="M 244.98 259.2 
L 250.56 259.2 
L 250.56 227.95226 
L 244.98 227.95226 
z
" clip-path="url(#pd798ef6ffb)" style="fill: #ff0000; opacity: 0.2; stroke: #ffff00; stroke-linejoin: miter"/>
   </g>
   <g id="patch_35">
    <path d="M 250.56 259.2 
L 256.14 259.2 
L 256.14 217.536347 
L 250.56 217.536347 
z
" clip-path="url(#pd798ef6ffb)" style="fill: #ff0000; opacity: 0.2; stroke: #ffff00; stroke-linejoin: miter"/>
   </g>
   <g id="patch_36">
    <path d="M 256.14 259.2 
L 261.72 259.2 
L 261.72 218.577939 
L 256.14 218.577939 
z
" clip-path="url(#pd798ef6ffb)" style="fill: #ff0000; opacity: 0.2; stroke: #ffff00; stroke-linejoin: miter"/>
   </g>
   <g id="patch_37">
    <path d="M 261.72 259.2 
L 267.3 259.2 
L 267.3 214.411573 
L 261.72 214.411573 
z
" clip-path="url(#pd798ef6ffb)" style="fill: #ff0000; opacity: 0.2; stroke: #ffff00; stroke-linejoin: miter"/>
   </g>
   <g id="patch_38">
    <path d="M 267.3 259.2 
L 272.88 259.2 
L 272.88 201.912477 
L 267.3 201.912477 
z
" clip-path="url(#pd798ef6ffb)" style="fill: #ff0000; opacity: 0.2; stroke: #ffff00; stroke-linejoin: miter"/>
   </g>
   <g id="patch_39">
    <path d="M 272.88 259.2 
L 278.46 259.2 
L 278.46 163.373599 
L 272.88 163.373599 
z
" clip-path="url(#pd798ef6ffb)" style="fill: #ff0000; opacity: 0.2; stroke: #ffff00; stroke-linejoin: miter"/>
   </g>
   <g id="patch_40">
    <path d="M 278.46 259.2 
L 284.04 259.2 
L 284.04 114.418807 
L 278.46 114.418807 
z
" clip-path="url(#pd798ef6ffb)" style="fill: #ff0000; opacity: 0.2; stroke: #ffff00; stroke-linejoin: miter"/>
   </g>
   <g id="patch_41">
    <path d="M 284.04 259.2 
L 289.62 259.2 
L 289.62 110.252441 
L 284.04 110.252441 
z
" clip-path="url(#pd798ef6ffb)" style="fill: #ff0000; opacity: 0.2; stroke: #ffff00; stroke-linejoin: miter"/>
   </g>
   <g id="patch_42">
    <path d="M 289.62 259.2 
L 295.2 259.2 
L 295.2 79.004702 
L 289.62 79.004702 
z
" clip-path="url(#pd798ef6ffb)" style="fill: #ff0000; opacity: 0.2; stroke: #ffff00; stroke-linejoin: miter"/>
   </g>
   <g id="patch_43">
    <path d="M 295.2 259.2 
L 300.78 259.2 
L 300.78 58.172875 
L 295.2 58.172875 
z
" clip-path="url(#pd798ef6ffb)" style="fill: #ff0000; opacity: 0.2; stroke: #ffff00; stroke-linejoin: miter"/>
   </g>
   <g id="patch_44">
    <path d="M 300.78 259.2 
L 306.36 259.2 
L 306.36 36.299458 
L 300.78 36.299458 
z
" clip-path="url(#pd798ef6ffb)" style="fill: #ff0000; opacity: 0.2; stroke: #ffff00; stroke-linejoin: miter"/>
   </g>
   <g id="patch_45">
    <path d="M 306.36 259.2 
L 311.94 259.2 
L 311.94 44.632188 
L 306.36 44.632188 
z
" clip-path="url(#pd798ef6ffb)" style="fill: #ff0000; opacity: 0.2; stroke: #ffff00; stroke-linejoin: miter"/>
   </g>
   <g id="patch_46">
    <path d="M 311.94 259.2 
L 317.52 259.2 
L 317.52 51.923327 
L 311.94 51.923327 
z
" clip-path="url(#pd798ef6ffb)" style="fill: #ff0000; opacity: 0.2; stroke: #ffff00; stroke-linejoin: miter"/>
   </g>
   <g id="patch_47">
    <path d="M 317.52 259.2 
L 323.1 259.2 
L 323.1 89.420615 
L 317.52 89.420615 
z
" clip-path="url(#pd798ef6ffb)" style="fill: #ff0000; opacity: 0.2; stroke: #ffff00; stroke-linejoin: miter"/>
   </g>
   <g id="patch_48">
    <path d="M 323.1 259.2 
L 328.68 259.2 
L 328.68 64.422423 
L 323.1 64.422423 
z
" clip-path="url(#pd798ef6ffb)" style="fill: #ff0000; opacity: 0.2; stroke: #ffff00; stroke-linejoin: miter"/>
   </g>
   <g id="patch_49">
    <path d="M 328.68 259.2 
L 334.26 259.2 
L 334.26 99.836528 
L 328.68 99.836528 
z
" clip-path="url(#pd798ef6ffb)" style="fill: #ff0000; opacity: 0.2; stroke: #ffff00; stroke-linejoin: miter"/>
   </g>
   <g id="patch_50">
    <path d="M 334.26 259.2 
L 339.84 259.2 
L 339.84 133.16745 
L 334.26 133.16745 
z
" clip-path="url(#pd798ef6ffb)" style="fill: #ff0000; opacity: 0.2; stroke: #ffff00; stroke-linejoin: miter"/>
   </g>
   <g id="patch_51">
    <path d="M 339.84 259.2 
L 345.42 259.2 
L 345.42 129.001085 
L 339.84 129.001085 
z
" clip-path="url(#pd798ef6ffb)" style="fill: #ff0000; opacity: 0.2; stroke: #ffff00; stroke-linejoin: miter"/>
   </g>
   <g id="patch_52">
    <path d="M 345.42 259.2 
L 351 259.2 
L 351 140.45859 
L 345.42 140.45859 
z
" clip-path="url(#pd798ef6ffb)" style="fill: #ff0000; opacity: 0.2; stroke: #ffff00; stroke-linejoin: miter"/>
   </g>
   <g id="patch_53">
    <path d="M 351 259.2 
L 356.58 259.2 
L 356.58 171.706329 
L 351 171.706329 
z
" clip-path="url(#pd798ef6ffb)" style="fill: #ff0000; opacity: 0.2; stroke: #ffff00; stroke-linejoin: miter"/>
   </g>
   <g id="patch_54">
    <path d="M 356.58 259.2 
L 362.16 259.2 
L 362.16 193.579747 
L 356.58 193.579747 
z
" clip-path="url(#pd798ef6ffb)" style="fill: #ff0000; opacity: 0.2; stroke: #ffff00; stroke-linejoin: miter"/>
   </g>
   <g id="patch_55">
    <path d="M 362.16 259.2 
L 367.74 259.2 
L 367.74 209.203617 
L 362.16 209.203617 
z
" clip-path="url(#pd798ef6ffb)" style="fill: #ff0000; opacity: 0.2; stroke: #ffff00; stroke-linejoin: miter"/>
   </g>
   <g id="patch_56">
    <path d="M 367.74 259.2 
L 373.32 259.2 
L 373.32 194.621338 
L 367.74 194.621338 
z
" clip-path="url(#pd798ef6ffb)" style="fill: #ff0000; opacity: 0.2; stroke: #ffff00; stroke-linejoin: miter"/>
   </g>
   <g id="patch_57">
    <path d="M 373.32 259.2 
L 378.9 259.2 
L 378.9 210.245208 
L 373.32 210.245208 
z
" clip-path="url(#pd798ef6ffb)" style="fill: #ff0000; opacity: 0.2; stroke: #ffff00; stroke-linejoin: miter"/>
   </g>
   <g id="patch_58">
    <path d="M 378.9 259.2 
L 384.48 259.2 
L 384.48 223.785895 
L 378.9 223.785895 
z
" clip-path="url(#pd798ef6ffb)" style="fill: #ff0000; opacity: 0.2; stroke: #ffff00; stroke-linejoin: miter"/>
   </g>
   <g id="patch_59">
    <path d="M 384.48 259.2 
L 390.06 259.2 
L 390.06 222.744304 
L 384.48 222.744304 
z
" clip-path="url(#pd798ef6ffb)" style="fill: #ff0000; opacity: 0.2; stroke: #ffff00; stroke-linejoin: miter"/>
   </g>
   <g id="patch_60">
    <path d="M 390.06 259.2 
L 395.64 259.2 
L 395.64 233.160217 
L 390.06 233.160217 
z
" clip-path="url(#pd798ef6ffb)" style="fill: #ff0000; opacity: 0.2; stroke: #ffff00; stroke-linejoin: miter"/>
   </g>
   <g id="patch_61">
    <path d="M 395.64 259.2 
L 401.22 259.2 
L 401.22 232.118626 
L 395.64 232.118626 
z
" clip-path="url(#pd798ef6ffb)" style="fill: #ff0000; opacity: 0.2; stroke: #ffff00; stroke-linejoin: miter"/>
   </g>
   <g id="patch_62">
    <path d="M 401.22 259.2 
L 406.8 259.2 
L 406.8 239.409765 
L 401.22 239.409765 
z
" clip-path="url(#pd798ef6ffb)" style="fill: #ff0000; opacity: 0.2; stroke: #ffff00; stroke-linejoin: miter"/>
   </g>
   <g id="patch_63">
    <path d="M 406.8 259.2 
L 412.38 259.2 
L 412.38 250.867269 
L 406.8 250.867269 
z
" clip-path="url(#pd798ef6ffb)" style="fill: #ff0000; opacity: 0.2; stroke: #ffff00; stroke-linejoin: miter"/>
   </g>
   <g id="patch_64">
    <path d="M 412.38 259.2 
L 417.96 259.2 
L 417.96 252.950452 
L 412.38 252.950452 
z
" clip-path="url(#pd798ef6ffb)" style="fill: #ff0000; opacity: 0.2; stroke: #ffff00; stroke-linejoin: miter"/>
   </g>
   <g id="patch_65">
    <path d="M 417.96 259.2 
L 423.54 259.2 
L 423.54 246.700904 
L 417.96 246.700904 
z
" clip-path="url(#pd798ef6ffb)" style="fill: #ff0000; opacity: 0.2; stroke: #ffff00; stroke-linejoin: miter"/>
   </g>
   <g id="patch_66">
    <path d="M 423.54 259.2 
L 429.12 259.2 
L 429.12 255.033635 
L 423.54 255.033635 
z
" clip-path="url(#pd798ef6ffb)" style="fill: #ff0000; opacity: 0.2; stroke: #ffff00; stroke-linejoin: miter"/>
   </g>
   <g id="patch_67">
    <path d="M 429.12 259.2 
L 434.7 259.2 
L 434.7 252.950452 
L 429.12 252.950452 
z
" clip-path="url(#pd798ef6ffb)" style="fill: #ff0000; opacity: 0.2; stroke: #ffff00; stroke-linejoin: miter"/>
   </g>
   <g id="patch_68">
    <path d="M 434.7 259.2 
L 440.28 259.2 
L 440.28 251.908861 
L 434.7 251.908861 
z
" clip-path="url(#pd798ef6ffb)" style="fill: #ff0000; opacity: 0.2; stroke: #ffff00; stroke-linejoin: miter"/>
   </g>
   <g id="patch_69">
    <path d="M 440.28 259.2 
L 445.86 259.2 
L 445.86 255.033635 
L 440.28 255.033635 
z
" clip-path="url(#pd798ef6ffb)" style="fill: #ff0000; opacity: 0.2; stroke: #ffff00; stroke-linejoin: miter"/>
   </g>
   <g id="patch_70">
    <path d="M 445.86 259.2 
L 451.44 259.2 
L 451.44 253.992043 
L 445.86 253.992043 
z
" clip-path="url(#pd798ef6ffb)" style="fill: #ff0000; opacity: 0.2; stroke: #ffff00; stroke-linejoin: miter"/>
   </g>
   <g id="patch_71">
    <path d="M 451.44 259.2 
L 457.02 259.2 
L 457.02 256.075226 
L 451.44 256.075226 
z
" clip-path="url(#pd798ef6ffb)" style="fill: #ff0000; opacity: 0.2; stroke: #ffff00; stroke-linejoin: miter"/>
   </g>
   <g id="patch_72">
    <path d="M 457.02 259.2 
L 462.6 259.2 
L 462.6 258.158409 
L 457.02 258.158409 
z
" clip-path="url(#pd798ef6ffb)" style="fill: #ff0000; opacity: 0.2; stroke: #ffff00; stroke-linejoin: miter"/>
   </g>
   <g id="patch_73">
    <path d="M 462.6 259.2 
L 468.18 259.2 
L 468.18 258.158409 
L 462.6 258.158409 
z
" clip-path="url(#pd798ef6ffb)" style="fill: #ff0000; opacity: 0.2; stroke: #ffff00; stroke-linejoin: miter"/>
   </g>
   <g id="patch_74">
    <path d="M 468.18 259.2 
L 473.76 259.2 
L 473.76 258.158409 
L 468.18 258.158409 
z
" clip-path="url(#pd798ef6ffb)" style="fill: #ff0000; opacity: 0.2; stroke: #ffff00; stroke-linejoin: miter"/>
   </g>
   <g id="patch_75">
    <path d="M 473.76 259.2 
L 479.34 259.2 
L 479.34 257.116817 
L 473.76 257.116817 
z
" clip-path="url(#pd798ef6ffb)" style="fill: #ff0000; opacity: 0.2; stroke: #ffff00; stroke-linejoin: miter"/>
   </g>
   <g id="patch_76">
    <path d="M 479.34 259.2 
L 484.92 259.2 
L 484.92 258.158409 
L 479.34 258.158409 
z
" clip-path="url(#pd798ef6ffb)" style="fill: #ff0000; opacity: 0.2; stroke: #ffff00; stroke-linejoin: miter"/>
   </g>
   <g id="patch_77">
    <path d="M 484.92 259.2 
L 490.5 259.2 
L 490.5 259.2 
L 484.92 259.2 
z
" clip-path="url(#pd798ef6ffb)" style="fill: #ff0000; opacity: 0.2; stroke: #ffff00; stroke-linejoin: miter"/>
   </g>
   <g id="patch_78">
    <path d="M 490.5 259.2 
L 496.08 259.2 
L 496.08 258.158409 
L 490.5 258.158409 
z
" clip-path="url(#pd798ef6ffb)" style="fill: #ff0000; opacity: 0.2; stroke: #ffff00; stroke-linejoin: miter"/>
   </g>
   <g id="patch_79">
    <path d="M 496.08 259.2 
L 501.66 259.2 
L 501.66 259.2 
L 496.08 259.2 
z
" clip-path="url(#pd798ef6ffb)" style="fill: #ff0000; opacity: 0.2; stroke: #ffff00; stroke-linejoin: miter"/>
   </g>
   <g id="patch_80">
    <path d="M 501.66 259.2 
L 507.24 259.2 
L 507.24 259.2 
L 501.66 259.2 
z
" clip-path="url(#pd798ef6ffb)" style="fill: #ff0000; opacity: 0.2; stroke: #ffff00; stroke-linejoin: miter"/>
   </g>
   <g id="patch_81">
    <path d="M 507.24 259.2 
L 512.82 259.2 
L 512.82 258.158409 
L 507.24 258.158409 
z
" clip-path="url(#pd798ef6ffb)" style="fill: #ff0000; opacity: 0.2; stroke: #ffff00; stroke-linejoin: miter"/>
   </g>
   <g id="patch_82">
    <path d="M 512.82 259.2 
L 518.4 259.2 
L 518.4 259.2 
L 512.82 259.2 
z
" clip-path="url(#pd798ef6ffb)" style="fill: #ff0000; opacity: 0.2; stroke: #ffff00; stroke-linejoin: miter"/>
   </g>
   <g id="patch_83">
    <path d="M 518.4 259.2 
L 523.98 259.2 
L 523.98 259.2 
L 518.4 259.2 
z
" clip-path="url(#pd798ef6ffb)" style="fill: #ff0000; opacity: 0.2; stroke: #ffff00; stroke-linejoin: miter"/>
   </g>
   <g id="patch_84">
    <path d="M 523.98 259.2 
L 529.56 259.2 
L 529.56 259.2 
L 523.98 259.2 
z
" clip-path="url(#pd798ef6ffb)" style="fill: #ff0000; opacity: 0.2; stroke: #ffff00; stroke-linejoin: miter"/>
   </g>
   <g id="patch_85">
    <path d="M 529.56 259.2 
L 535.14 259.2 
L 535.14 257.116817 
L 529.56 257.116817 
z
" clip-path="url(#pd798ef6ffb)" style="fill: #ff0000; opacity: 0.2; stroke: #ffff00; stroke-linejoin: miter"/>
   </g>
   <g id="patch_86">
    <path d="M 535.14 259.2 
L 540.72 259.2 
L 540.72 257.116817 
L 535.14 257.116817 
z
" clip-path="url(#pd798ef6ffb)" style="fill: #ff0000; opacity: 0.2; stroke: #ffff00; stroke-linejoin: miter"/>
   </g>
   <g id="patch_87">
    <path d="M 540.72 259.2 
L 546.3 259.2 
L 546.3 258.158409 
L 540.72 258.158409 
z
" clip-path="url(#pd798ef6ffb)" style="fill: #ff0000; opacity: 0.2; stroke: #ffff00; stroke-linejoin: miter"/>
   </g>
   <g id="patch_88">
    <path d="M 546.3 259.2 
L 551.88 259.2 
L 551.88 259.2 
L 546.3 259.2 
z
" clip-path="url(#pd798ef6ffb)" style="fill: #ff0000; opacity: 0.2; stroke: #ffff00; stroke-linejoin: miter"/>
   </g>
   <g id="patch_89">
    <path d="M 551.88 259.2 
L 557.46 259.2 
L 557.46 259.2 
L 551.88 259.2 
z
" clip-path="url(#pd798ef6ffb)" style="fill: #ff0000; opacity: 0.2; stroke: #ffff00; stroke-linejoin: miter"/>
   </g>
   <g id="patch_90">
    <path d="M 557.46 259.2 
L 563.04 259.2 
L 563.04 259.2 
L 557.46 259.2 
z
" clip-path="url(#pd798ef6ffb)" style="fill: #ff0000; opacity: 0.2; stroke: #ffff00; stroke-linejoin: miter"/>
   </g>
   <g id="patch_91">
    <path d="M 563.04 259.2 
L 568.62 259.2 
L 568.62 259.2 
L 563.04 259.2 
z
" clip-path="url(#pd798ef6ffb)" style="fill: #ff0000; opacity: 0.2; stroke: #ffff00; stroke-linejoin: miter"/>
   </g>
   <g id="patch_92">
    <path d="M 568.62 259.2 
L 574.2 259.2 
L 574.2 259.2 
L 568.62 259.2 
z
" clip-path="url(#pd798ef6ffb)" style="fill: #ff0000; opacity: 0.2; stroke: #ffff00; stroke-linejoin: miter"/>
   </g>
   <g id="patch_93">
    <path d="M 574.2 259.2 
L 579.78 259.2 
L 579.78 258.158409 
L 574.2 258.158409 
z
" clip-path="url(#pd798ef6ffb)" style="fill: #ff0000; opacity: 0.2; stroke: #ffff00; stroke-linejoin: miter"/>
   </g>
   <g id="patch_94">
    <path d="M 579.78 259.2 
L 585.36 259.2 
L 585.36 259.2 
L 579.78 259.2 
z
" clip-path="url(#pd798ef6ffb)" style="fill: #ff0000; opacity: 0.2; stroke: #ffff00; stroke-linejoin: miter"/>
   </g>
   <g id="patch_95">
    <path d="M 585.36 259.2 
L 590.94 259.2 
L 590.94 259.2 
L 585.36 259.2 
z
" clip-path="url(#pd798ef6ffb)" style="fill: #ff0000; opacity: 0.2; stroke: #ffff00; stroke-linejoin: miter"/>
   </g>
   <g id="patch_96">
    <path d="M 590.94 259.2 
L 596.52 259.2 
L 596.52 259.2 
L 590.94 259.2 
z
" clip-path="url(#pd798ef6ffb)" style="fill: #ff0000; opacity: 0.2; stroke: #ffff00; stroke-linejoin: miter"/>
   </g>
   <g id="patch_97">
    <path d="M 596.52 259.2 
L 602.1 259.2 
L 602.1 258.158409 
L 596.52 258.158409 
z
" clip-path="url(#pd798ef6ffb)" style="fill: #ff0000; opacity: 0.2; stroke: #ffff00; stroke-linejoin: miter"/>
   </g>
   <g id="patch_98">
    <path d="M 602.1 259.2 
L 607.68 259.2 
L 607.68 259.2 
L 602.1 259.2 
z
" clip-path="url(#pd798ef6ffb)" style="fill: #ff0000; opacity: 0.2; stroke: #ffff00; stroke-linejoin: miter"/>
   </g>
   <g id="patch_99">
    <path d="M 607.68 259.2 
L 613.26 259.2 
L 613.26 259.2 
L 607.68 259.2 
z
" clip-path="url(#pd798ef6ffb)" style="fill: #ff0000; opacity: 0.2; stroke: #ffff00; stroke-linejoin: miter"/>
   </g>
   <g id="patch_100">
    <path d="M 613.26 259.2 
L 618.84 259.2 
L 618.84 259.2 
L 613.26 259.2 
z
" clip-path="url(#pd798ef6ffb)" style="fill: #ff0000; opacity: 0.2; stroke: #ffff00; stroke-linejoin: miter"/>
   </g>
   <g id="patch_101">
    <path d="M 618.84 259.2 
L 624.42 259.2 
L 624.42 259.2 
L 618.84 259.2 
z
" clip-path="url(#pd798ef6ffb)" style="fill: #ff0000; opacity: 0.2; stroke: #ffff00; stroke-linejoin: miter"/>
   </g>
   <g id="patch_102">
    <path d="M 72 259.2 
L 77.58 259.2 
L 77.58 259.2 
L 72 259.2 
z
" clip-path="url(#pd798ef6ffb)" style="fill: #0000ff; opacity: 0.2; stroke: #0000ff; stroke-linejoin: miter"/>
   </g>
   <g id="patch_103">
    <path d="M 77.58 259.2 
L 83.16 259.2 
L 83.16 259.2 
L 77.58 259.2 
z
" clip-path="url(#pd798ef6ffb)" style="fill: #0000ff; opacity: 0.2; stroke: #0000ff; stroke-linejoin: miter"/>
   </g>
   <g id="patch_104">
    <path d="M 83.16 259.2 
L 88.74 259.2 
L 88.74 259.2 
L 83.16 259.2 
z
" clip-path="url(#pd798ef6ffb)" style="fill: #0000ff; opacity: 0.2; stroke: #0000ff; stroke-linejoin: miter"/>
   </g>
   <g id="patch_105">
    <path d="M 88.74 259.2 
L 94.32 259.2 
L 94.32 259.2 
L 88.74 259.2 
z
" clip-path="url(#pd798ef6ffb)" style="fill: #0000ff; opacity: 0.2; stroke: #0000ff; stroke-linejoin: miter"/>
   </g>
   <g id="patch_106">
    <path d="M 94.32 259.2 
L 99.9 259.2 
L 99.9 259.2 
L 94.32 259.2 
z
" clip-path="url(#pd798ef6ffb)" style="fill: #0000ff; opacity: 0.2; stroke: #0000ff; stroke-linejoin: miter"/>
   </g>
   <g id="patch_107">
    <path d="M 99.9 259.2 
L 105.48 259.2 
L 105.48 259.2 
L 99.9 259.2 
z
" clip-path="url(#pd798ef6ffb)" style="fill: #0000ff; opacity: 0.2; stroke: #0000ff; stroke-linejoin: miter"/>
   </g>
   <g id="patch_108">
    <path d="M 105.48 259.2 
L 111.06 259.2 
L 111.06 259.2 
L 105.48 259.2 
z
" clip-path="url(#pd798ef6ffb)" style="fill: #0000ff; opacity: 0.2; stroke: #0000ff; stroke-linejoin: miter"/>
   </g>
   <g id="patch_109">
    <path d="M 111.06 259.2 
L 116.64 259.2 
L 116.64 259.2 
L 111.06 259.2 
z
" clip-path="url(#pd798ef6ffb)" style="fill: #0000ff; opacity: 0.2; stroke: #0000ff; stroke-linejoin: miter"/>
   </g>
   <g id="patch_110">
    <path d="M 116.64 259.2 
L 122.22 259.2 
L 122.22 259.2 
L 116.64 259.2 
z
" clip-path="url(#pd798ef6ffb)" style="fill: #0000ff; opacity: 0.2; stroke: #0000ff; stroke-linejoin: miter"/>
   </g>
   <g id="patch_111">
    <path d="M 122.22 259.2 
L 127.8 259.2 
L 127.8 259.2 
L 122.22 259.2 
z
" clip-path="url(#pd798ef6ffb)" style="fill: #0000ff; opacity: 0.2; stroke: #0000ff; stroke-linejoin: miter"/>
   </g>
   <g id="patch_112">
    <path d="M 127.8 259.2 
L 133.38 259.2 
L 133.38 259.2 
L 127.8 259.2 
z
" clip-path="url(#pd798ef6ffb)" style="fill: #0000ff; opacity: 0.2; stroke: #0000ff; stroke-linejoin: miter"/>
   </g>
   <g id="patch_113">
    <path d="M 133.38 259.2 
L 138.96 259.2 
L 138.96 259.2 
L 133.38 259.2 
z
" clip-path="url(#pd798ef6ffb)" style="fill: #0000ff; opacity: 0.2; stroke: #0000ff; stroke-linejoin: miter"/>
   </g>
   <g id="patch_114">
    <path d="M 138.96 259.2 
L 144.54 259.2 
L 144.54 259.2 
L 138.96 259.2 
z
" clip-path="url(#pd798ef6ffb)" style="fill: #0000ff; opacity: 0.2; stroke: #0000ff; stroke-linejoin: miter"/>
   </g>
   <g id="patch_115">
    <path d="M 144.54 259.2 
L 150.12 259.2 
L 150.12 254.65201 
L 144.54 254.65201 
z
" clip-path="url(#pd798ef6ffb)" style="fill: #0000ff; opacity: 0.2; stroke: #0000ff; stroke-linejoin: miter"/>
   </g>
   <g id="patch_116">
    <path d="M 150.12 259.2 
L 155.7 259.2 
L 155.7 236.579732 
L 150.12 236.579732 
z
" clip-path="url(#pd798ef6ffb)" style="fill: #0000ff; opacity: 0.2; stroke: #0000ff; stroke-linejoin: miter"/>
   </g>
   <g id="patch_117">
    <path d="M 155.7 259.2 
L 161.28 259.2 
L 161.28 230.715218 
L 155.7 230.715218 
z
" clip-path="url(#pd798ef6ffb)" style="fill: #0000ff; opacity: 0.2; stroke: #0000ff; stroke-linejoin: miter"/>
   </g>
   <g id="patch_118">
    <path d="M 161.28 259.2 
L 166.86 259.2 
L 166.86 241.606458 
L 161.28 241.606458 
z
" clip-path="url(#pd798ef6ffb)" style="fill: #0000ff; opacity: 0.2; stroke: #0000ff; stroke-linejoin: miter"/>
   </g>
   <g id="patch_119">
    <path d="M 166.86 259.2 
L 172.44 259.2 
L 172.44 249.026863 
L 166.86 249.026863 
z
" clip-path="url(#pd798ef6ffb)" style="fill: #0000ff; opacity: 0.2; stroke: #0000ff; stroke-linejoin: miter"/>
   </g>
   <g id="patch_120">
    <path d="M 172.44 259.2 
L 178.02 259.2 
L 178.02 240.76867 
L 172.44 240.76867 
z
" clip-path="url(#pd798ef6ffb)" style="fill: #0000ff; opacity: 0.2; stroke: #0000ff; stroke-linejoin: miter"/>
   </g>
   <g id="patch_121">
    <path d="M 178.02 259.2 
L 183.6 259.2 
L 183.6 226.047543 
L 178.02 226.047543 
z
" clip-path="url(#pd798ef6ffb)" style="fill: #0000ff; opacity: 0.2; stroke: #0000ff; stroke-linejoin: miter"/>
   </g>
   <g id="patch_122">
    <path d="M 183.6 259.2 
L 189.18 259.2 
L 189.18 208.932737 
L 183.6 208.932737 
z
" clip-path="url(#pd798ef6ffb)" style="fill: #0000ff; opacity: 0.2; stroke: #0000ff; stroke-linejoin: miter"/>
   </g>
   <g id="patch_123">
    <path d="M 189.18 259.2 
L 194.76 259.2 
L 194.76 200.794228 
L 189.18 200.794228 
z
" clip-path="url(#pd798ef6ffb)" style="fill: #0000ff; opacity: 0.2; stroke: #0000ff; stroke-linejoin: miter"/>
   </g>
   <g id="patch_124">
    <path d="M 194.76 259.2 
L 200.34 259.2 
L 200.34 187.509308 
L 194.76 187.509308 
z
" clip-path="url(#pd798ef6ffb)" style="fill: #0000ff; opacity: 0.2; stroke: #0000ff; stroke-linejoin: miter"/>
   </g>
   <g id="patch_125">
    <path d="M 200.34 259.2 
L 205.92 259.2 
L 205.92 179.490483 
L 200.34 179.490483 
z
" clip-path="url(#pd798ef6ffb)" style="fill: #0000ff; opacity: 0.2; stroke: #0000ff; stroke-linejoin: miter"/>
   </g>
   <g id="patch_126">
    <path d="M 205.92 259.2 
L 211.5 259.2 
L 211.5 163.931568 
L 205.92 163.931568 
z
" clip-path="url(#pd798ef6ffb)" style="fill: #0000ff; opacity: 0.2; stroke: #0000ff; stroke-linejoin: miter"/>
   </g>
   <g id="patch_127">
    <path d="M 211.5 259.2 
L 217.08 259.2 
L 217.08 154.835587 
L 211.5 154.835587 
z
" clip-path="url(#pd798ef6ffb)" style="fill: #0000ff; opacity: 0.2; stroke: #0000ff; stroke-linejoin: miter"/>
   </g>
   <g id="patch_128">
    <path d="M 217.08 259.2 
L 222.66 259.2 
L 222.66 148.372653 
L 217.08 148.372653 
z
" clip-path="url(#pd798ef6ffb)" style="fill: #0000ff; opacity: 0.2; stroke: #0000ff; stroke-linejoin: miter"/>
   </g>
   <g id="patch_129">
    <path d="M 222.66 259.2 
L 228.24 259.2 
L 228.24 155.434007 
L 222.66 155.434007 
z
" clip-path="url(#pd798ef6ffb)" style="fill: #0000ff; opacity: 0.2; stroke: #0000ff; stroke-linejoin: miter"/>
   </g>
   <g id="patch_130">
    <path d="M 228.24 259.2 
L 233.82 259.2 
L 233.82 169.915766 
L 228.24 169.915766 
z
" clip-path="url(#pd798ef6ffb)" style="fill: #0000ff; opacity: 0.2; stroke: #0000ff; stroke-linejoin: miter"/>
   </g>
   <g id="patch_131">
    <path d="M 233.82 259.2 
L 239.4 259.2 
L 239.4 187.628992 
L 233.82 187.628992 
z
" clip-path="url(#pd798ef6ffb)" style="fill: #0000ff; opacity: 0.2; stroke: #0000ff; stroke-linejoin: miter"/>
   </g>
   <g id="patch_132">
    <path d="M 239.4 259.2 
L 244.98 259.2 
L 244.98 190.262039 
L 239.4 190.262039 
z
" clip-path="url(#pd798ef6ffb)" style="fill: #0000ff; opacity: 0.2; stroke: #0000ff; stroke-linejoin: miter"/>
   </g>
   <g id="patch_133">
    <path d="M 244.98 259.2 
L 250.56 259.2 
L 250.56 190.860459 
L 244.98 190.860459 
z
" clip-path="url(#pd798ef6ffb)" style="fill: #0000ff; opacity: 0.2; stroke: #0000ff; stroke-linejoin: miter"/>
   </g>
   <g id="patch_134">
    <path d="M 250.56 259.2 
L 256.14 259.2 
L 256.14 182.602266 
L 250.56 182.602266 
z
" clip-path="url(#pd798ef6ffb)" style="fill: #0000ff; opacity: 0.2; stroke: #0000ff; stroke-linejoin: miter"/>
   </g>
   <g id="patch_135">
    <path d="M 256.14 259.2 
L 261.72 259.2 
L 261.72 192.176983 
L 256.14 192.176983 
z
" clip-path="url(#pd798ef6ffb)" style="fill: #0000ff; opacity: 0.2; stroke: #0000ff; stroke-linejoin: miter"/>
   </g>
   <g id="patch_136">
    <path d="M 261.72 259.2 
L 267.3 259.2 
L 267.3 194.450978 
L 261.72 194.450978 
z
" clip-path="url(#pd798ef6ffb)" style="fill: #0000ff; opacity: 0.2; stroke: #0000ff; stroke-linejoin: miter"/>
   </g>
   <g id="patch_137">
    <path d="M 267.3 259.2 
L 272.88 259.2 
L 272.88 183.559738 
L 267.3 183.559738 
z
" clip-path="url(#pd798ef6ffb)" style="fill: #0000ff; opacity: 0.2; stroke: #0000ff; stroke-linejoin: miter"/>
   </g>
   <g id="patch_138">
    <path d="M 272.88 259.2 
L 278.46 259.2 
L 278.46 164.529988 
L 272.88 164.529988 
z
" clip-path="url(#pd798ef6ffb)" style="fill: #0000ff; opacity: 0.2; stroke: #0000ff; stroke-linejoin: miter"/>
   </g>
   <g id="patch_139">
    <path d="M 278.46 259.2 
L 284.04 259.2 
L 284.04 123.358706 
L 278.46 123.358706 
z
" clip-path="url(#pd798ef6ffb)" style="fill: #0000ff; opacity: 0.2; stroke: #0000ff; stroke-linejoin: miter"/>
   </g>
   <g id="patch_140">
    <path d="M 284.04 259.2 
L 289.62 259.2 
L 289.62 95.831395 
L 284.04 95.831395 
z
" clip-path="url(#pd798ef6ffb)" style="fill: #0000ff; opacity: 0.2; stroke: #0000ff; stroke-linejoin: miter"/>
   </g>
   <g id="patch_141">
    <path d="M 289.62 259.2 
L 295.2 259.2 
L 295.2 82.905528 
L 289.62 82.905528 
z
" clip-path="url(#pd798ef6ffb)" style="fill: #0000ff; opacity: 0.2; stroke: #0000ff; stroke-linejoin: miter"/>
   </g>
   <g id="patch_142">
    <path d="M 295.2 259.2 
L 300.78 259.2 
L 300.78 66.269457 
L 295.2 66.269457 
z
" clip-path="url(#pd798ef6ffb)" style="fill: #0000ff; opacity: 0.2; stroke: #0000ff; stroke-linejoin: miter"/>
   </g>
   <g id="patch_143">
    <path d="M 300.78 259.2 
L 306.36 259.2 
L 306.36 63.157674 
L 300.78 63.157674 
z
" clip-path="url(#pd798ef6ffb)" style="fill: #0000ff; opacity: 0.2; stroke: #0000ff; stroke-linejoin: miter"/>
   </g>
   <g id="patch_144">
    <path d="M 306.36 259.2 
L 311.94 259.2 
L 311.94 82.426792 
L 306.36 82.426792 
z
" clip-path="url(#pd798ef6ffb)" style="fill: #0000ff; opacity: 0.2; stroke: #0000ff; stroke-linejoin: miter"/>
   </g>
   <g id="patch_145">
    <path d="M 311.94 259.2 
L 317.52 259.2 
L 317.52 103.730537 
L 311.94 103.730537 
z
" clip-path="url(#pd798ef6ffb)" style="fill: #0000ff; opacity: 0.2; stroke: #0000ff; stroke-linejoin: miter"/>
   </g>
   <g id="patch_146">
    <path d="M 317.52 259.2 
L 323.1 259.2 
L 323.1 119.887871 
L 317.52 119.887871 
z
" clip-path="url(#pd798ef6ffb)" style="fill: #0000ff; opacity: 0.2; stroke: #0000ff; stroke-linejoin: miter"/>
   </g>
   <g id="patch_147">
    <path d="M 323.1 259.2 
L 328.68 259.2 
L 328.68 157.708002 
L 323.1 157.708002 
z
" clip-path="url(#pd798ef6ffb)" style="fill: #0000ff; opacity: 0.2; stroke: #0000ff; stroke-linejoin: miter"/>
   </g>
   <g id="patch_148">
    <path d="M 328.68 259.2 
L 334.26 259.2 
L 334.26 180.208587 
L 328.68 180.208587 
z
" clip-path="url(#pd798ef6ffb)" style="fill: #0000ff; opacity: 0.2; stroke: #0000ff; stroke-linejoin: miter"/>
   </g>
   <g id="patch_149">
    <path d="M 334.26 259.2 
L 339.84 259.2 
L 339.84 191.339195 
L 334.26 191.339195 
z
" clip-path="url(#pd798ef6ffb)" style="fill: #0000ff; opacity: 0.2; stroke: #0000ff; stroke-linejoin: miter"/>
   </g>
   <g id="patch_150">
    <path d="M 339.84 259.2 
L 345.42 259.2 
L 345.42 209.411473 
L 339.84 209.411473 
z
" clip-path="url(#pd798ef6ffb)" style="fill: #0000ff; opacity: 0.2; stroke: #0000ff; stroke-linejoin: miter"/>
   </g>
   <g id="patch_151">
    <path d="M 345.42 259.2 
L 351 259.2 
L 351 220.901133 
L 345.42 220.901133 
z
" clip-path="url(#pd798ef6ffb)" style="fill: #0000ff; opacity: 0.2; stroke: #0000ff; stroke-linejoin: miter"/>
   </g>
   <g id="patch_152">
    <path d="M 351 259.2 
L 356.58 259.2 
L 356.58 234.545104 
L 351 234.545104 
z
" clip-path="url(#pd798ef6ffb)" style="fill: #0000ff; opacity: 0.2; stroke: #0000ff; stroke-linejoin: miter"/>
   </g>
   <g id="patch_153">
    <path d="M 356.58 259.2 
L 362.16 259.2 
L 362.16 235.502576 
L 356.58 235.502576 
z
" clip-path="url(#pd798ef6ffb)" style="fill: #0000ff; opacity: 0.2; stroke: #0000ff; stroke-linejoin: miter"/>
   </g>
   <g id="patch_154">
    <path d="M 362.16 259.2 
L 367.74 259.2 
L 367.74 243.401717 
L 362.16 243.401717 
z
" clip-path="url(#pd798ef6ffb)" style="fill: #0000ff; opacity: 0.2; stroke: #0000ff; stroke-linejoin: miter"/>
   </g>
   <g id="patch_155">
    <path d="M 367.74 259.2 
L 373.32 259.2 
L 373.32 246.872552 
L 367.74 246.872552 
z
" clip-path="url(#pd798ef6ffb)" style="fill: #0000ff; opacity: 0.2; stroke: #0000ff; stroke-linejoin: miter"/>
   </g>
   <g id="patch_156">
    <path d="M 373.32 259.2 
L 378.9 259.2 
L 378.9 248.907179 
L 373.32 248.907179 
z
" clip-path="url(#pd798ef6ffb)" style="fill: #0000ff; opacity: 0.2; stroke: #0000ff; stroke-linejoin: miter"/>
   </g>
   <g id="patch_157">
    <path d="M 378.9 259.2 
L 384.48 259.2 
L 384.48 250.104019 
L 378.9 250.104019 
z
" clip-path="url(#pd798ef6ffb)" style="fill: #0000ff; opacity: 0.2; stroke: #0000ff; stroke-linejoin: miter"/>
   </g>
   <g id="patch_158">
    <path d="M 384.48 259.2 
L 390.06 259.2 
L 390.06 253.574854 
L 384.48 253.574854 
z
" clip-path="url(#pd798ef6ffb)" style="fill: #0000ff; opacity: 0.2; stroke: #0000ff; stroke-linejoin: miter"/>
   </g>
   <g id="patch_159">
    <path d="M 390.06 259.2 
L 395.64 259.2 
L 395.64 252.976434 
L 390.06 252.976434 
z
" clip-path="url(#pd798ef6ffb)" style="fill: #0000ff; opacity: 0.2; stroke: #0000ff; stroke-linejoin: miter"/>
   </g>
   <g id="patch_160">
    <path d="M 395.64 259.2 
L 401.22 259.2 
L 401.22 254.891377 
L 395.64 254.891377 
z
" clip-path="url(#pd798ef6ffb)" style="fill: #0000ff; opacity: 0.2; stroke: #0000ff; stroke-linejoin: miter"/>
   </g>
   <g id="patch_161">
    <path d="M 401.22 259.2 
L 406.8 259.2 
L 406.8 255.968533 
L 401.22 255.968533 
z
" clip-path="url(#pd798ef6ffb)" style="fill: #0000ff; opacity: 0.2; stroke: #0000ff; stroke-linejoin: miter"/>
   </g>
   <g id="patch_162">
    <path d="M 406.8 259.2 
L 412.38 259.2 
L 412.38 256.207901 
L 406.8 256.207901 
z
" clip-path="url(#pd798ef6ffb)" style="fill: #0000ff; opacity: 0.2; stroke: #0000ff; stroke-linejoin: miter"/>
   </g>
   <g id="patch_163">
    <path d="M 412.38 259.2 
L 417.96 259.2 
L 417.96 257.045689 
L 412.38 257.045689 
z
" clip-path="url(#pd798ef6ffb)" style="fill: #0000ff; opacity: 0.2; stroke: #0000ff; stroke-linejoin: miter"/>
   </g>
   <g id="patch_164">
    <path d="M 417.96 259.2 
L 423.54 259.2 
L 423.54 257.285057 
L 417.96 257.285057 
z
" clip-path="url(#pd798ef6ffb)" style="fill: #0000ff; opacity: 0.2; stroke: #0000ff; stroke-linejoin: miter"/>
   </g>
   <g id="patch_165">
    <path d="M 423.54 259.2 
L 429.12 259.2 
L 429.12 258.242528 
L 423.54 258.242528 
z
" clip-path="url(#pd798ef6ffb)" style="fill: #0000ff; opacity: 0.2; stroke: #0000ff; stroke-linejoin: miter"/>
   </g>
   <g id="patch_166">
    <path d="M 429.12 259.2 
L 434.7 259.2 
L 434.7 257.763792 
L 429.12 257.763792 
z
" clip-path="url(#pd798ef6ffb)" style="fill: #0000ff; opacity: 0.2; stroke: #0000ff; stroke-linejoin: miter"/>
   </g>
   <g id="patch_167">
    <path d="M 434.7 259.2 
L 440.28 259.2 
L 440.28 258.362212 
L 434.7 258.362212 
z
" clip-path="url(#pd798ef6ffb)" style="fill: #0000ff; opacity: 0.2; stroke: #0000ff; stroke-linejoin: miter"/>
   </g>
   <g id="patch_168">
    <path d="M 440.28 259.2 
L 445.86 259.2 
L 445.86 258.481896 
L 440.28 258.481896 
z
" clip-path="url(#pd798ef6ffb)" style="fill: #0000ff; opacity: 0.2; stroke: #0000ff; stroke-linejoin: miter"/>
   </g>
   <g id="patch_169">
    <path d="M 445.86 259.2 
L 451.44 259.2 
L 451.44 258.481896 
L 445.86 258.481896 
z
" clip-path="url(#pd798ef6ffb)" style="fill: #0000ff; opacity: 0.2; stroke: #0000ff; stroke-linejoin: miter"/>
   </g>
   <g id="patch_170">
    <path d="M 451.44 259.2 
L 457.02 259.2 
L 457.02 258.362212 
L 451.44 258.362212 
z
" clip-path="url(#pd798ef6ffb)" style="fill: #0000ff; opacity: 0.2; stroke: #0000ff; stroke-linejoin: miter"/>
   </g>
   <g id="patch_171">
    <path d="M 457.02 259.2 
L 462.6 259.2 
L 462.6 258.840948 
L 457.02 258.840948 
z
" clip-path="url(#pd798ef6ffb)" style="fill: #0000ff; opacity: 0.2; stroke: #0000ff; stroke-linejoin: miter"/>
   </g>
   <g id="patch_172">
    <path d="M 462.6 259.2 
L 468.18 259.2 
L 468.18 258.840948 
L 462.6 258.840948 
z
" clip-path="url(#pd798ef6ffb)" style="fill: #0000ff; opacity: 0.2; stroke: #0000ff; stroke-linejoin: miter"/>
   </g>
   <g id="patch_173">
    <path d="M 468.18 259.2 
L 473.76 259.2 
L 473.76 258.721264 
L 468.18 258.721264 
z
" clip-path="url(#pd798ef6ffb)" style="fill: #0000ff; opacity: 0.2; stroke: #0000ff; stroke-linejoin: miter"/>
   </g>
   <g id="patch_174">
    <path d="M 473.76 259.2 
L 479.34 259.2 
L 479.34 258.840948 
L 473.76 258.840948 
z
" clip-path="url(#pd798ef6ffb)" style="fill: #0000ff; opacity: 0.2; stroke: #0000ff; stroke-linejoin: miter"/>
   </g>
   <g id="patch_175">
    <path d="M 479.34 259.2 
L 484.92 259.2 
L 484.92 258.960632 
L 479.34 258.960632 
z
" clip-path="url(#pd798ef6ffb)" style="fill: #0000ff; opacity: 0.2; stroke: #0000ff; stroke-linejoin: miter"/>
   </g>
   <g id="patch_176">
    <path d="M 484.92 259.2 
L 490.5 259.2 
L 490.5 258.960632 
L 484.92 258.960632 
z
" clip-path="url(#pd798ef6ffb)" style="fill: #0000ff; opacity: 0.2; stroke: #0000ff; stroke-linejoin: miter"/>
   </g>
   <g id="patch_177">
    <path d="M 490.5 259.2 
L 496.08 259.2 
L 496.08 259.080316 
L 490.5 259.080316 
z
" clip-path="url(#pd798ef6ffb)" style="fill: #0000ff; opacity: 0.2; stroke: #0000ff; stroke-linejoin: miter"/>
   </g>
   <g id="patch_178">
    <path d="M 496.08 259.2 
L 501.66 259.2 
L 501.66 259.080316 
L 496.08 259.080316 
z
" clip-path="url(#pd798ef6ffb)" style="fill: #0000ff; opacity: 0.2; stroke: #0000ff; stroke-linejoin: miter"/>
   </g>
   <g id="patch_179">
    <path d="M 501.66 259.2 
L 507.24 259.2 
L 507.24 259.2 
L 501.66 259.2 
z
" clip-path="url(#pd798ef6ffb)" style="fill: #0000ff; opacity: 0.2; stroke: #0000ff; stroke-linejoin: miter"/>
   </g>
   <g id="patch_180">
    <path d="M 507.24 259.2 
L 512.82 259.2 
L 512.82 259.2 
L 507.24 259.2 
z
" clip-path="url(#pd798ef6ffb)" style="fill: #0000ff; opacity: 0.2; stroke: #0000ff; stroke-linejoin: miter"/>
   </g>
   <g id="patch_181">
    <path d="M 512.82 259.2 
L 518.4 259.2 
L 518.4 258.840948 
L 512.82 258.840948 
z
" clip-path="url(#pd798ef6ffb)" style="fill: #0000ff; opacity: 0.2; stroke: #0000ff; stroke-linejoin: miter"/>
   </g>
   <g id="patch_182">
    <path d="M 518.4 259.2 
L 523.98 259.2 
L 523.98 258.960632 
L 518.4 258.960632 
z
" clip-path="url(#pd798ef6ffb)" style="fill: #0000ff; opacity: 0.2; stroke: #0000ff; stroke-linejoin: miter"/>
   </g>
   <g id="patch_183">
    <path d="M 523.98 259.2 
L 529.56 259.2 
L 529.56 258.960632 
L 523.98 258.960632 
z
" clip-path="url(#pd798ef6ffb)" style="fill: #0000ff; opacity: 0.2; stroke: #0000ff; stroke-linejoin: miter"/>
   </g>
   <g id="patch_184">
    <path d="M 529.56 259.2 
L 535.14 259.2 
L 535.14 259.080316 
L 529.56 259.080316 
z
" clip-path="url(#pd798ef6ffb)" style="fill: #0000ff; opacity: 0.2; stroke: #0000ff; stroke-linejoin: miter"/>
   </g>
   <g id="patch_185">
    <path d="M 535.14 259.2 
L 540.72 259.2 
L 540.72 259.080316 
L 535.14 259.080316 
z
" clip-path="url(#pd798ef6ffb)" style="fill: #0000ff; opacity: 0.2; stroke: #0000ff; stroke-linejoin: miter"/>
   </g>
   <g id="patch_186">
    <path d="M 540.72 259.2 
L 546.3 259.2 
L 546.3 258.721264 
L 540.72 258.721264 
z
" clip-path="url(#pd798ef6ffb)" style="fill: #0000ff; opacity: 0.2; stroke: #0000ff; stroke-linejoin: miter"/>
   </g>
   <g id="patch_187">
    <path d="M 546.3 259.2 
L 551.88 259.2 
L 551.88 258.840948 
L 546.3 258.840948 
z
" clip-path="url(#pd798ef6ffb)" style="fill: #0000ff; opacity: 0.2; stroke: #0000ff; stroke-linejoin: miter"/>
   </g>
   <g id="patch_188">
    <path d="M 551.88 259.2 
L 557.46 259.2 
L 557.46 258.960632 
L 551.88 258.960632 
z
" clip-path="url(#pd798ef6ffb)" style="fill: #0000ff; opacity: 0.2; stroke: #0000ff; stroke-linejoin: miter"/>
   </g>
   <g id="patch_189">
    <path d="M 557.46 259.2 
L 563.04 259.2 
L 563.04 259.2 
L 557.46 259.2 
z
" clip-path="url(#pd798ef6ffb)" style="fill: #0000ff; opacity: 0.2; stroke: #0000ff; stroke-linejoin: miter"/>
   </g>
   <g id="patch_190">
    <path d="M 563.04 259.2 
L 568.62 259.2 
L 568.62 259.2 
L 563.04 259.2 
z
" clip-path="url(#pd798ef6ffb)" style="fill: #0000ff; opacity: 0.2; stroke: #0000ff; stroke-linejoin: miter"/>
   </g>
   <g id="patch_191">
    <path d="M 568.62 259.2 
L 574.2 259.2 
L 574.2 259.2 
L 568.62 259.2 
z
" clip-path="url(#pd798ef6ffb)" style="fill: #0000ff; opacity: 0.2; stroke: #0000ff; stroke-linejoin: miter"/>
   </g>
   <g id="patch_192">
    <path d="M 574.2 259.2 
L 579.78 259.2 
L 579.78 259.2 
L 574.2 259.2 
z
" clip-path="url(#pd798ef6ffb)" style="fill: #0000ff; opacity: 0.2; stroke: #0000ff; stroke-linejoin: miter"/>
   </g>
   <g id="patch_193">
    <path d="M 579.78 259.2 
L 585.36 259.2 
L 585.36 259.080316 
L 579.78 259.080316 
z
" clip-path="url(#pd798ef6ffb)" style="fill: #0000ff; opacity: 0.2; stroke: #0000ff; stroke-linejoin: miter"/>
   </g>
   <g id="patch_194">
    <path d="M 585.36 259.2 
L 590.94 259.2 
L 590.94 259.080316 
L 585.36 259.080316 
z
" clip-path="url(#pd798ef6ffb)" style="fill: #0000ff; opacity: 0.2; stroke: #0000ff; stroke-linejoin: miter"/>
   </g>
   <g id="patch_195">
    <path d="M 590.94 259.2 
L 596.52 259.2 
L 596.52 259.2 
L 590.94 259.2 
z
" clip-path="url(#pd798ef6ffb)" style="fill: #0000ff; opacity: 0.2; stroke: #0000ff; stroke-linejoin: miter"/>
   </g>
   <g id="patch_196">
    <path d="M 596.52 259.2 
L 602.1 259.2 
L 602.1 259.2 
L 596.52 259.2 
z
" clip-path="url(#pd798ef6ffb)" style="fill: #0000ff; opacity: 0.2; stroke: #0000ff; stroke-linejoin: miter"/>
   </g>
   <g id="patch_197">
    <path d="M 602.1 259.2 
L 607.68 259.2 
L 607.68 259.2 
L 602.1 259.2 
z
" clip-path="url(#pd798ef6ffb)" style="fill: #0000ff; opacity: 0.2; stroke: #0000ff; stroke-linejoin: miter"/>
   </g>
   <g id="patch_198">
    <path d="M 607.68 259.2 
L 613.26 259.2 
L 613.26 259.2 
L 607.68 259.2 
z
" clip-path="url(#pd798ef6ffb)" style="fill: #0000ff; opacity: 0.2; stroke: #0000ff; stroke-linejoin: miter"/>
   </g>
   <g id="patch_199">
    <path d="M 613.26 259.2 
L 618.84 259.2 
L 618.84 259.080316 
L 613.26 259.080316 
z
" clip-path="url(#pd798ef6ffb)" style="fill: #0000ff; opacity: 0.2; stroke: #0000ff; stroke-linejoin: miter"/>
   </g>
   <g id="patch_200">
    <path d="M 618.84 259.2 
L 624.42 259.2 
L 624.42 258.960632 
L 618.84 258.960632 
z
" clip-path="url(#pd798ef6ffb)" style="fill: #0000ff; opacity: 0.2; stroke: #0000ff; stroke-linejoin: miter"/>
   </g>
   <g id="line2d_1">
    <path d="M 72 259.2 
L 126.684 259.099226 
L 132.264 258.872932 
L 136.728 258.499982 
L 141.192 257.919777 
L 154.584 255.950443 
L 157.932 255.757595 
L 163.512 255.723879 
L 169.092 255.681849 
L 172.44 255.469912 
L 175.788 255.059965 
L 179.136 254.459121 
L 183.6 253.424433 
L 189.18 251.86792 
L 193.644 250.424914 
L 198.108 248.737688 
L 201.456 247.261093 
L 204.804 245.581855 
L 209.268 243.059864 
L 219.312 237.136764 
L 222.66 235.47374 
L 226.008 234.079914 
L 229.356 232.920887 
L 238.284 229.993057 
L 241.632 228.503631 
L 243.864 227.291635 
L 246.096 225.875704 
L 248.328 224.229565 
L 250.56 222.315893 
L 252.792 220.078286 
L 255.024 217.436781 
L 257.256 214.289094 
L 259.488 210.518626 
L 261.72 206.008656 
L 263.952 200.660517 
L 266.184 194.412212 
L 268.416 187.253373 
L 270.648 179.232873 
L 272.88 170.456945 
L 276.228 156.218456 
L 288.504 102.224154 
L 290.736 93.48877 
L 292.968 85.44325 
L 295.2 78.233448 
L 297.432 72.00223 
L 299.664 66.877105 
L 300.78 64.761417 
L 301.896 62.955875 
L 303.012 61.466047 
L 304.128 60.294402 
L 305.244 59.440267 
L 306.36 58.899898 
L 307.476 58.666676 
L 308.592 58.731389 
L 309.708 59.0826 
L 310.824 59.707067 
L 311.94 60.590189 
L 313.056 61.716452 
L 314.172 63.06986 
L 315.288 64.63431 
L 317.52 68.333224 
L 319.752 72.692442 
L 321.984 77.602097 
L 324.216 82.963363 
L 327.564 91.657412 
L 332.028 104.05026 
L 339.84 126.619569 
L 353.232 165.477212 
L 356.58 174.547306 
L 359.928 182.886539 
L 362.16 187.945899 
L 364.392 192.57948 
L 366.624 196.79938 
L 368.856 200.642903 
L 371.088 204.163368 
L 374.436 208.965999 
L 377.784 213.348633 
L 382.248 218.739748 
L 386.712 223.739088 
L 391.176 228.413149 
L 395.64 232.80974 
L 400.104 236.946841 
L 404.568 240.774083 
L 407.916 243.370057 
L 411.264 245.664913 
L 414.612 247.614312 
L 417.96 249.203447 
L 421.308 250.45061 
L 424.656 251.401317 
L 428.004 252.118401 
L 432.468 252.83299 
L 451.44 255.532572 
L 459.252 256.714101 
L 464.832 257.329424 
L 470.412 257.711158 
L 482.688 258.20964 
L 499.428 258.808133 
L 509.472 258.87253 
L 517.284 258.789265 
L 517.284 258.789265 
" clip-path="url(#pd798ef6ffb)" style="fill: none; stroke: #ff0000; stroke-width: 2; stroke-linecap: square"/>
   </g>
   <g id="line2d_2">
    <path d="M 72 259.2 
L 130.032 259.089917 
L 133.38 258.825049 
L 135.612 258.43222 
L 137.844 257.746007 
L 140.076 256.64848 
L 141.192 255.913085 
L 143.424 254.034649 
L 145.656 251.637078 
L 149.004 247.400987 
L 151.236 244.558993 
L 153.468 242.102617 
L 154.584 241.117036 
L 155.7 240.331313 
L 156.816 239.760921 
L 157.932 239.408931 
L 159.048 239.2654 
L 160.164 239.30764 
L 162.396 239.802619 
L 165.744 240.822037 
L 166.86 241.015132 
L 167.976 241.048414 
L 169.092 240.879327 
L 170.208 240.474407 
L 171.324 239.810543 
L 172.44 238.875597 
L 173.556 237.668391 
L 174.672 236.198118 
L 175.788 234.483238 
L 178.02 230.430287 
L 180.252 225.776605 
L 190.296 203.789724 
L 204.804 174.166678 
L 208.152 167.745088 
L 210.384 163.925453 
L 212.616 160.673408 
L 213.732 159.316599 
L 214.848 158.169643 
L 215.964 157.254843 
L 217.08 156.593336 
L 218.196 156.20412 
L 219.312 156.102825 
L 220.428 156.300313 
L 221.544 156.801256 
L 222.66 157.60289 
L 223.776 158.694128 
L 224.892 160.055192 
L 226.008 161.657849 
L 228.24 165.438429 
L 236.052 179.881945 
L 238.284 183.000411 
L 239.4 184.265312 
L 240.516 185.326969 
L 241.632 186.189897 
L 242.748 186.866148 
L 243.864 187.374704 
L 246.096 187.992776 
L 248.328 188.284294 
L 252.792 188.765425 
L 257.256 189.428798 
L 258.372 189.47195 
L 259.488 189.38859 
L 260.604 189.135078 
L 261.72 188.668667 
L 262.836 187.949334 
L 263.952 186.941109 
L 265.068 185.612935 
L 266.184 183.939142 
L 267.3 181.899713 
L 268.416 179.480494 
L 269.532 176.673511 
L 270.648 173.477459 
L 272.88 165.950393 
L 275.112 157.048866 
L 277.344 147.06721 
L 285.156 110.318366 
L 287.388 101.216592 
L 289.62 93.289799 
L 291.852 86.643407 
L 292.968 83.818188 
L 294.084 81.334585 
L 295.2 79.202667 
L 296.316 77.43544 
L 297.432 76.048359 
L 298.548 75.05802 
L 299.664 74.480303 
L 300.78 74.328258 
L 301.896 74.610122 
L 303.012 75.327779 
L 304.128 76.475926 
L 305.244 78.042056 
L 306.36 80.007233 
L 307.476 82.347509 
L 308.592 85.035726 
L 310.824 91.342414 
L 313.056 98.710359 
L 315.288 106.951995 
L 318.636 120.58077 
L 328.68 163.401895 
L 330.912 171.792007 
L 333.144 179.55416 
L 336.492 190.169436 
L 339.84 199.792333 
L 343.188 208.553822 
L 345.42 213.902938 
L 347.652 218.819015 
L 349.884 223.26041 
L 352.116 227.193834 
L 354.348 230.611827 
L 356.58 233.546251 
L 358.812 236.067671 
L 361.044 238.267501 
L 364.392 241.144107 
L 367.74 243.649962 
L 371.088 245.813313 
L 374.436 247.624247 
L 377.784 249.114665 
L 381.132 250.352179 
L 385.596 251.719294 
L 391.176 253.154625 
L 397.872 254.66203 
L 402.336 255.44861 
L 406.8 256.010985 
L 423.54 257.645714 
L 429.12 257.982436 
L 438.048 258.249912 
L 468.18 258.80089 
L 487.152 258.986343 
L 505.008 259.105111 
L 517.284 258.983809 
L 517.284 258.983809 
" clip-path="url(#pd798ef6ffb)" style="fill: none; stroke: #0000ff; stroke-width: 2; stroke-linecap: square"/>
   </g>
   <g id="patch_201">
    <path d="M 72 259.2 
L 72 28.8 
" style="fill: none; stroke: #000000; stroke-linejoin: miter; stroke-linecap: square"/>
   </g>
   <g id="patch_202">
    <path d="M 518.4 259.2 
L 518.4 28.8 
" style="fill: none; stroke: #000000; stroke-linejoin: miter; stroke-linecap: square"/>
   </g>
   <g id="patch_203">
    <path d="M 72 259.2 
L 518.4 259.2 
" style="fill: none; stroke: #000000; stroke-linejoin: miter; stroke-linecap: square"/>
   </g>
   <g id="patch_204">
    <path d="M 72 28.8 
L 518.4 28.8 
" style="fill: none; stroke: #000000; stroke-linejoin: miter; stroke-linecap: square"/>
   </g>
   <g id="matplotlib.axis_1">
    <g id="xtick_1">
     <g id="line2d_3">
      <defs>
       <path id="m26ef847955" d="M 0 0 
L 0 -4 
" style="stroke: #000000; stroke-width: 0.5"/>
      </defs>
      <g>
       <use xlink:href="#m26ef847955" x="72" y="259.2" style="stroke: #000000; stroke-width: 0.5"/>
      </g>
     </g>
     <g id="line2d_4">
      <defs>
       <path id="mc645f1a90d" d="M 0 0 
L 0 4 
" style="stroke: #000000; stroke-width: 0.5"/>
      </defs>
      <g>
       <use xlink:href="#mc645f1a90d" x="72" y="28.8" style="stroke: #000000; stroke-width: 0.5"/>
      </g>
     </g>
     <g id="text_1">
      <!-- 0.00 -->
      <g transform="translate(58.640625 272.318125) scale(0.12 -0.12)">
       <defs>
        <path id="DejaVuSans-30" d="M 2034 4250 
Q 1547 4250 1301 3770 
Q 1056 3291 1056 2328 
Q 1056 1369 1301 889 
Q 1547 409 2034 409 
Q 2525 409 2770 889 
Q 3016 1369 3016 2328 
Q 3016 3291 2770 3770 
Q 2525 4250 2034 4250 
z
M 2034 4750 
Q 2819 4750 3233 4129 
Q 3647 3509 3647 2328 
Q 3647 1150 3233 529 
Q 2819 -91 2034 -91 
Q 1250 -91 836 529 
Q 422 1150 422 2328 
Q 422 3509 836 4129 
Q 1250 4750 2034 4750 
z
" transform="scale(0.015625)"/>
        <path id="DejaVuSans-2e" d="M 684 794 
L 1344 794 
L 1344 0 
L 684 0 
L 684 794 
z
" transform="scale(0.015625)"/>
       </defs>
       <use xlink:href="#DejaVuSans-30"/>
       <use xlink:href="#DejaVuSans-2e" x="63.623047"/>
       <use xlink:href="#DejaVuSans-30" x="95.410156"/>
       <use xlink:href="#DejaVuSans-30" x="159.033203"/>
      </g>
     </g>
    </g>
    <g id="xtick_2">
     <g id="line2d_5">
      <g>
       <use xlink:href="#m26ef847955" x="127.8" y="259.2" style="stroke: #000000; stroke-width: 0.5"/>
      </g>
     </g>
     <g id="line2d_6">
      <g>
       <use xlink:href="#mc645f1a90d" x="127.8" y="28.8" style="stroke: #000000; stroke-width: 0.5"/>
      </g>
     </g>
     <g id="text_2">
      <!-- 0.05 -->
      <g transform="translate(114.440625 272.318125) scale(0.12 -0.12)">
       <defs>
        <path id="DejaVuSans-35" d="M 691 4666 
L 3169 4666 
L 3169 4134 
L 1269 4134 
L 1269 2991 
Q 1406 3038 1543 3061 
Q 1681 3084 1819 3084 
Q 2600 3084 3056 2656 
Q 3513 2228 3513 1497 
Q 3513 744 3044 326 
Q 2575 -91 1722 -91 
Q 1428 -91 1123 -41 
Q 819 9 494 109 
L 494 744 
Q 775 591 1075 516 
Q 1375 441 1709 441 
Q 2250 441 2565 725 
Q 2881 1009 2881 1497 
Q 2881 1984 2565 2268 
Q 2250 2553 1709 2553 
Q 1456 2553 1204 2497 
Q 953 2441 691 2322 
L 691 4666 
z
" transform="scale(0.015625)"/>
       </defs>
       <use xlink:href="#DejaVuSans-30"/>
       <use xlink:href="#DejaVuSans-2e" x="63.623047"/>
       <use xlink:href="#DejaVuSans-30" x="95.410156"/>
       <use xlink:href="#DejaVuSans-35" x="159.033203"/>
      </g>
     </g>
    </g>
    <g id="xtick_3">
     <g id="line2d_7">
      <g>
       <use xlink:href="#m26ef847955" x="183.6" y="259.2" style="stroke: #000000; stroke-width: 0.5"/>
      </g>
     </g>
     <g id="line2d_8">
      <g>
       <use xlink:href="#mc645f1a90d" x="183.6" y="28.8" style="stroke: #000000; stroke-width: 0.5"/>
      </g>
     </g>
     <g id="text_3">
      <!-- 0.10 -->
      <g transform="translate(170.240625 272.318125) scale(0.12 -0.12)">
       <defs>
        <path id="DejaVuSans-31" d="M 794 531 
L 1825 531 
L 1825 4091 
L 703 3866 
L 703 4441 
L 1819 4666 
L 2450 4666 
L 2450 531 
L 3481 531 
L 3481 0 
L 794 0 
L 794 531 
z
" transform="scale(0.015625)"/>
       </defs>
       <use xlink:href="#DejaVuSans-30"/>
       <use xlink:href="#DejaVuSans-2e" x="63.623047"/>
       <use xlink:href="#DejaVuSans-31" x="95.410156"/>
       <use xlink:href="#DejaVuSans-30" x="159.033203"/>
      </g>
     </g>
    </g>
    <g id="xtick_4">
     <g id="line2d_9">
      <g>
       <use xlink:href="#m26ef847955" x="239.4" y="259.2" style="stroke: #000000; stroke-width: 0.5"/>
      </g>
     </g>
     <g id="line2d_10">
      <g>
       <use xlink:href="#mc645f1a90d" x="239.4" y="28.8" style="stroke: #000000; stroke-width: 0.5"/>
      </g>
     </g>
     <g id="text_4">
      <!-- 0.15 -->
      <g transform="translate(226.040625 272.318125) scale(0.12 -0.12)">
       <use xlink:href="#DejaVuSans-30"/>
       <use xlink:href="#DejaVuSans-2e" x="63.623047"/>
       <use xlink:href="#DejaVuSans-31" x="95.410156"/>
       <use xlink:href="#DejaVuSans-35" x="159.033203"/>
      </g>
     </g>
    </g>
    <g id="xtick_5">
     <g id="line2d_11">
      <g>
       <use xlink:href="#m26ef847955" x="295.2" y="259.2" style="stroke: #000000; stroke-width: 0.5"/>
      </g>
     </g>
     <g id="line2d_12">
      <g>
       <use xlink:href="#mc645f1a90d" x="295.2" y="28.8" style="stroke: #000000; stroke-width: 0.5"/>
      </g>
     </g>
     <g id="text_5">
      <!-- 0.20 -->
      <g transform="translate(281.840625 272.318125) scale(0.12 -0.12)">
       <defs>
        <path id="DejaVuSans-32" d="M 1228 531 
L 3431 531 
L 3431 0 
L 469 0 
L 469 531 
Q 828 903 1448 1529 
Q 2069 2156 2228 2338 
Q 2531 2678 2651 2914 
Q 2772 3150 2772 3378 
Q 2772 3750 2511 3984 
Q 2250 4219 1831 4219 
Q 1534 4219 1204 4116 
Q 875 4013 500 3803 
L 500 4441 
Q 881 4594 1212 4672 
Q 1544 4750 1819 4750 
Q 2544 4750 2975 4387 
Q 3406 4025 3406 3419 
Q 3406 3131 3298 2873 
Q 3191 2616 2906 2266 
Q 2828 2175 2409 1742 
Q 1991 1309 1228 531 
z
" transform="scale(0.015625)"/>
       </defs>
       <use xlink:href="#DejaVuSans-30"/>
       <use xlink:href="#DejaVuSans-2e" x="63.623047"/>
       <use xlink:href="#DejaVuSans-32" x="95.410156"/>
       <use xlink:href="#DejaVuSans-30" x="159.033203"/>
      </g>
     </g>
    </g>
    <g id="xtick_6">
     <g id="line2d_13">
      <g>
       <use xlink:href="#m26ef847955" x="351" y="259.2" style="stroke: #000000; stroke-width: 0.5"/>
      </g>
     </g>
     <g id="line2d_14">
      <g>
       <use xlink:href="#mc645f1a90d" x="351" y="28.8" style="stroke: #000000; stroke-width: 0.5"/>
      </g>
     </g>
     <g id="text_6">
      <!-- 0.25 -->
      <g transform="translate(337.640625 272.318125) scale(0.12 -0.12)">
       <use xlink:href="#DejaVuSans-30"/>
       <use xlink:href="#DejaVuSans-2e" x="63.623047"/>
       <use xlink:href="#DejaVuSans-32" x="95.410156"/>
       <use xlink:href="#DejaVuSans-35" x="159.033203"/>
      </g>
     </g>
    </g>
    <g id="xtick_7">
     <g id="line2d_15">
      <g>
       <use xlink:href="#m26ef847955" x="406.8" y="259.2" style="stroke: #000000; stroke-width: 0.5"/>
      </g>
     </g>
     <g id="line2d_16">
      <g>
       <use xlink:href="#mc645f1a90d" x="406.8" y="28.8" style="stroke: #000000; stroke-width: 0.5"/>
      </g>
     </g>
     <g id="text_7">
      <!-- 0.30 -->
      <g transform="translate(393.440625 272.318125) scale(0.12 -0.12)">
       <defs>
        <path id="DejaVuSans-33" d="M 2597 2516 
Q 3050 2419 3304 2112 
Q 3559 1806 3559 1356 
Q 3559 666 3084 287 
Q 2609 -91 1734 -91 
Q 1441 -91 1130 -33 
Q 819 25 488 141 
L 488 750 
Q 750 597 1062 519 
Q 1375 441 1716 441 
Q 2309 441 2620 675 
Q 2931 909 2931 1356 
Q 2931 1769 2642 2001 
Q 2353 2234 1838 2234 
L 1294 2234 
L 1294 2753 
L 1863 2753 
Q 2328 2753 2575 2939 
Q 2822 3125 2822 3475 
Q 2822 3834 2567 4026 
Q 2313 4219 1838 4219 
Q 1578 4219 1281 4162 
Q 984 4106 628 3988 
L 628 4550 
Q 988 4650 1302 4700 
Q 1616 4750 1894 4750 
Q 2613 4750 3031 4423 
Q 3450 4097 3450 3541 
Q 3450 3153 3228 2886 
Q 3006 2619 2597 2516 
z
" transform="scale(0.015625)"/>
       </defs>
       <use xlink:href="#DejaVuSans-30"/>
       <use xlink:href="#DejaVuSans-2e" x="63.623047"/>
       <use xlink:href="#DejaVuSans-33" x="95.410156"/>
       <use xlink:href="#DejaVuSans-30" x="159.033203"/>
      </g>
     </g>
    </g>
    <g id="xtick_8">
     <g id="line2d_17">
      <g>
       <use xlink:href="#m26ef847955" x="462.6" y="259.2" style="stroke: #000000; stroke-width: 0.5"/>
      </g>
     </g>
     <g id="line2d_18">
      <g>
       <use xlink:href="#mc645f1a90d" x="462.6" y="28.8" style="stroke: #000000; stroke-width: 0.5"/>
      </g>
     </g>
     <g id="text_8">
      <!-- 0.35 -->
      <g transform="translate(449.240625 272.318125) scale(0.12 -0.12)">
       <use xlink:href="#DejaVuSans-30"/>
       <use xlink:href="#DejaVuSans-2e" x="63.623047"/>
       <use xlink:href="#DejaVuSans-33" x="95.410156"/>
       <use xlink:href="#DejaVuSans-35" x="159.033203"/>
      </g>
     </g>
    </g>
    <g id="xtick_9">
     <g id="line2d_19">
      <g>
       <use xlink:href="#m26ef847955" x="518.4" y="259.2" style="stroke: #000000; stroke-width: 0.5"/>
      </g>
     </g>
     <g id="line2d_20">
      <g>
       <use xlink:href="#mc645f1a90d" x="518.4" y="28.8" style="stroke: #000000; stroke-width: 0.5"/>
      </g>
     </g>
     <g id="text_9">
      <!-- 0.40 -->
      <g transform="translate(505.040625 272.318125) scale(0.12 -0.12)">
       <defs>
        <path id="DejaVuSans-34" d="M 2419 4116 
L 825 1625 
L 2419 1625 
L 2419 4116 
z
M 2253 4666 
L 3047 4666 
L 3047 1625 
L 3713 1625 
L 3713 1100 
L 3047 1100 
L 3047 0 
L 2419 0 
L 2419 1100 
L 313 1100 
L 313 1709 
L 2253 4666 
z
" transform="scale(0.015625)"/>
       </defs>
       <use xlink:href="#DejaVuSans-30"/>
       <use xlink:href="#DejaVuSans-2e" x="63.623047"/>
       <use xlink:href="#DejaVuSans-34" x="95.410156"/>
       <use xlink:href="#DejaVuSans-30" x="159.033203"/>
      </g>
     </g>
    </g>
    <g id="text_10">
     <!-- response time -->
     <g transform="translate(252.488437 288.931875) scale(0.12 -0.12)">
      <defs>
       <path id="DejaVuSans-72" d="M 2631 2963 
Q 2534 3019 2420 3045 
Q 2306 3072 2169 3072 
Q 1681 3072 1420 2755 
Q 1159 2438 1159 1844 
L 1159 0 
L 581 0 
L 581 3500 
L 1159 3500 
L 1159 2956 
Q 1341 3275 1631 3429 
Q 1922 3584 2338 3584 
Q 2397 3584 2469 3576 
Q 2541 3569 2628 3553 
L 2631 2963 
z
" transform="scale(0.015625)"/>
       <path id="DejaVuSans-65" d="M 3597 1894 
L 3597 1613 
L 953 1613 
Q 991 1019 1311 708 
Q 1631 397 2203 397 
Q 2534 397 2845 478 
Q 3156 559 3463 722 
L 3463 178 
Q 3153 47 2828 -22 
Q 2503 -91 2169 -91 
Q 1331 -91 842 396 
Q 353 884 353 1716 
Q 353 2575 817 3079 
Q 1281 3584 2069 3584 
Q 2775 3584 3186 3129 
Q 3597 2675 3597 1894 
z
M 3022 2063 
Q 3016 2534 2758 2815 
Q 2500 3097 2075 3097 
Q 1594 3097 1305 2825 
Q 1016 2553 972 2059 
L 3022 2063 
z
" transform="scale(0.015625)"/>
       <path id="DejaVuSans-73" d="M 2834 3397 
L 2834 2853 
Q 2591 2978 2328 3040 
Q 2066 3103 1784 3103 
Q 1356 3103 1142 2972 
Q 928 2841 928 2578 
Q 928 2378 1081 2264 
Q 1234 2150 1697 2047 
L 1894 2003 
Q 2506 1872 2764 1633 
Q 3022 1394 3022 966 
Q 3022 478 2636 193 
Q 2250 -91 1575 -91 
Q 1294 -91 989 -36 
Q 684 19 347 128 
L 347 722 
Q 666 556 975 473 
Q 1284 391 1588 391 
Q 1994 391 2212 530 
Q 2431 669 2431 922 
Q 2431 1156 2273 1281 
Q 2116 1406 1581 1522 
L 1381 1569 
Q 847 1681 609 1914 
Q 372 2147 372 2553 
Q 372 3047 722 3315 
Q 1072 3584 1716 3584 
Q 2034 3584 2315 3537 
Q 2597 3491 2834 3397 
z
" transform="scale(0.015625)"/>
       <path id="DejaVuSans-70" d="M 1159 525 
L 1159 -1331 
L 581 -1331 
L 581 3500 
L 1159 3500 
L 1159 2969 
Q 1341 3281 1617 3432 
Q 1894 3584 2278 3584 
Q 2916 3584 3314 3078 
Q 3713 2572 3713 1747 
Q 3713 922 3314 415 
Q 2916 -91 2278 -91 
Q 1894 -91 1617 61 
Q 1341 213 1159 525 
z
M 3116 1747 
Q 3116 2381 2855 2742 
Q 2594 3103 2138 3103 
Q 1681 3103 1420 2742 
Q 1159 2381 1159 1747 
Q 1159 1113 1420 752 
Q 1681 391 2138 391 
Q 2594 391 2855 752 
Q 3116 1113 3116 1747 
z
" transform="scale(0.015625)"/>
       <path id="DejaVuSans-6f" d="M 1959 3097 
Q 1497 3097 1228 2736 
Q 959 2375 959 1747 
Q 959 1119 1226 758 
Q 1494 397 1959 397 
Q 2419 397 2687 759 
Q 2956 1122 2956 1747 
Q 2956 2369 2687 2733 
Q 2419 3097 1959 3097 
z
M 1959 3584 
Q 2709 3584 3137 3096 
Q 3566 2609 3566 1747 
Q 3566 888 3137 398 
Q 2709 -91 1959 -91 
Q 1206 -91 779 398 
Q 353 888 353 1747 
Q 353 2609 779 3096 
Q 1206 3584 1959 3584 
z
" transform="scale(0.015625)"/>
       <path id="DejaVuSans-6e" d="M 3513 2113 
L 3513 0 
L 2938 0 
L 2938 2094 
Q 2938 2591 2744 2837 
Q 2550 3084 2163 3084 
Q 1697 3084 1428 2787 
Q 1159 2491 1159 1978 
L 1159 0 
L 581 0 
L 581 3500 
L 1159 3500 
L 1159 2956 
Q 1366 3272 1645 3428 
Q 1925 3584 2291 3584 
Q 2894 3584 3203 3211 
Q 3513 2838 3513 2113 
z
" transform="scale(0.015625)"/>
       <path id="DejaVuSans-20" transform="scale(0.015625)"/>
       <path id="DejaVuSans-74" d="M 1172 4494 
L 1172 3500 
L 2356 3500 
L 2356 3053 
L 1172 3053 
L 1172 1153 
Q 1172 725 1289 603 
Q 1406 481 1766 481 
L 2356 481 
L 2356 0 
L 1766 0 
Q 1100 0 847 248 
Q 594 497 594 1153 
L 594 3053 
L 172 3053 
L 172 3500 
L 594 3500 
L 594 4494 
L 1172 4494 
z
" transform="scale(0.015625)"/>
       <path id="DejaVuSans-69" d="M 603 3500 
L 1178 3500 
L 1178 0 
L 603 0 
L 603 3500 
z
M 603 4863 
L 1178 4863 
L 1178 4134 
L 603 4134 
L 603 4863 
z
" transform="scale(0.015625)"/>
       <path id="DejaVuSans-6d" d="M 3328 2828 
Q 3544 3216 3844 3400 
Q 4144 3584 4550 3584 
Q 5097 3584 5394 3201 
Q 5691 2819 5691 2113 
L 5691 0 
L 5113 0 
L 5113 2094 
Q 5113 2597 4934 2840 
Q 4756 3084 4391 3084 
Q 3944 3084 3684 2787 
Q 3425 2491 3425 1978 
L 3425 0 
L 2847 0 
L 2847 2094 
Q 2847 2600 2669 2842 
Q 2491 3084 2119 3084 
Q 1678 3084 1418 2786 
Q 1159 2488 1159 1978 
L 1159 0 
L 581 0 
L 581 3500 
L 1159 3500 
L 1159 2956 
Q 1356 3278 1631 3431 
Q 1906 3584 2284 3584 
Q 2666 3584 2933 3390 
Q 3200 3197 3328 2828 
z
" transform="scale(0.015625)"/>
      </defs>
      <use xlink:href="#DejaVuSans-72"/>
      <use xlink:href="#DejaVuSans-65" x="38.863281"/>
      <use xlink:href="#DejaVuSans-73" x="100.386719"/>
      <use xlink:href="#DejaVuSans-70" x="152.486328"/>
      <use xlink:href="#DejaVuSans-6f" x="215.962891"/>
      <use xlink:href="#DejaVuSans-6e" x="277.144531"/>
      <use xlink:href="#DejaVuSans-73" x="340.523438"/>
      <use xlink:href="#DejaVuSans-65" x="392.623047"/>
      <use xlink:href="#DejaVuSans-20" x="454.146484"/>
      <use xlink:href="#DejaVuSans-74" x="485.933594"/>
      <use xlink:href="#DejaVuSans-69" x="525.142578"/>
      <use xlink:href="#DejaVuSans-6d" x="552.925781"/>
      <use xlink:href="#DejaVuSans-65" x="650.337891"/>
     </g>
    </g>
   </g>
   <g id="matplotlib.axis_2">
    <g id="ytick_1">
     <g id="line2d_21">
      <defs>
       <path id="mbf61295dd7" d="M 0 0 
L 4 0 
" style="stroke: #000000; stroke-width: 0.5"/>
      </defs>
      <g>
       <use xlink:href="#mbf61295dd7" x="72" y="259.2" style="stroke: #000000; stroke-width: 0.5"/>
      </g>
     </g>
     <g id="line2d_22">
      <defs>
       <path id="mdea26daf7d" d="M 0 0 
L -4 0 
" style="stroke: #000000; stroke-width: 0.5"/>
      </defs>
      <g>
       <use xlink:href="#mdea26daf7d" x="518.4" y="259.2" style="stroke: #000000; stroke-width: 0.5"/>
      </g>
     </g>
     <g id="text_11">
      <!-- 0 -->
      <g transform="translate(60.365 262.51125) scale(0.12 -0.12)">
       <use xlink:href="#DejaVuSans-30"/>
      </g>
     </g>
    </g>
    <g id="ytick_2">
     <g id="line2d_23">
      <g>
       <use xlink:href="#mbf61295dd7" x="72" y="226.285714" style="stroke: #000000; stroke-width: 0.5"/>
      </g>
     </g>
     <g id="line2d_24">
      <g>
       <use xlink:href="#mdea26daf7d" x="518.4" y="226.285714" style="stroke: #000000; stroke-width: 0.5"/>
      </g>
     </g>
     <g id="text_12">
      <!-- 2 -->
      <g transform="translate(60.365 229.596964) scale(0.12 -0.12)">
       <use xlink:href="#DejaVuSans-32"/>
      </g>
     </g>
    </g>
    <g id="ytick_3">
     <g id="line2d_25">
      <g>
       <use xlink:href="#mbf61295dd7" x="72" y="193.371429" style="stroke: #000000; stroke-width: 0.5"/>
      </g>
     </g>
     <g id="line2d_26">
      <g>
       <use xlink:href="#mdea26daf7d" x="518.4" y="193.371429" style="stroke: #000000; stroke-width: 0.5"/>
      </g>
     </g>
     <g id="text_13">
      <!-- 4 -->
      <g transform="translate(60.365 196.682679) scale(0.12 -0.12)">
       <use xlink:href="#DejaVuSans-34"/>
      </g>
     </g>
    </g>
    <g id="ytick_4">
     <g id="line2d_27">
      <g>
       <use xlink:href="#mbf61295dd7" x="72" y="160.457143" style="stroke: #000000; stroke-width: 0.5"/>
      </g>
     </g>
     <g id="line2d_28">
      <g>
       <use xlink:href="#mdea26daf7d" x="518.4" y="160.457143" style="stroke: #000000; stroke-width: 0.5"/>
      </g>
     </g>
     <g id="text_14">
      <!-- 6 -->
      <g transform="translate(60.365 163.768393) scale(0.12 -0.12)">
       <defs>
        <path id="DejaVuSans-36" d="M 2113 2584 
Q 1688 2584 1439 2293 
Q 1191 2003 1191 1497 
Q 1191 994 1439 701 
Q 1688 409 2113 409 
Q 2538 409 2786 701 
Q 3034 994 3034 1497 
Q 3034 2003 2786 2293 
Q 2538 2584 2113 2584 
z
M 3366 4563 
L 3366 3988 
Q 3128 4100 2886 4159 
Q 2644 4219 2406 4219 
Q 1781 4219 1451 3797 
Q 1122 3375 1075 2522 
Q 1259 2794 1537 2939 
Q 1816 3084 2150 3084 
Q 2853 3084 3261 2657 
Q 3669 2231 3669 1497 
Q 3669 778 3244 343 
Q 2819 -91 2113 -91 
Q 1303 -91 875 529 
Q 447 1150 447 2328 
Q 447 3434 972 4092 
Q 1497 4750 2381 4750 
Q 2619 4750 2861 4703 
Q 3103 4656 3366 4563 
z
" transform="scale(0.015625)"/>
       </defs>
       <use xlink:href="#DejaVuSans-36"/>
      </g>
     </g>
    </g>
    <g id="ytick_5">
     <g id="line2d_29">
      <g>
       <use xlink:href="#mbf61295dd7" x="72" y="127.542857" style="stroke: #000000; stroke-width: 0.5"/>
      </g>
     </g>
     <g id="line2d_30">
      <g>
       <use xlink:href="#mdea26daf7d" x="518.4" y="127.542857" style="stroke: #000000; stroke-width: 0.5"/>
      </g>
     </g>
     <g id="text_15">
      <!-- 8 -->
      <g transform="translate(60.365 130.854107) scale(0.12 -0.12)">
       <defs>
        <path id="DejaVuSans-38" d="M 2034 2216 
Q 1584 2216 1326 1975 
Q 1069 1734 1069 1313 
Q 1069 891 1326 650 
Q 1584 409 2034 409 
Q 2484 409 2743 651 
Q 3003 894 3003 1313 
Q 3003 1734 2745 1975 
Q 2488 2216 2034 2216 
z
M 1403 2484 
Q 997 2584 770 2862 
Q 544 3141 544 3541 
Q 544 4100 942 4425 
Q 1341 4750 2034 4750 
Q 2731 4750 3128 4425 
Q 3525 4100 3525 3541 
Q 3525 3141 3298 2862 
Q 3072 2584 2669 2484 
Q 3125 2378 3379 2068 
Q 3634 1759 3634 1313 
Q 3634 634 3220 271 
Q 2806 -91 2034 -91 
Q 1263 -91 848 271 
Q 434 634 434 1313 
Q 434 1759 690 2068 
Q 947 2378 1403 2484 
z
M 1172 3481 
Q 1172 3119 1398 2916 
Q 1625 2713 2034 2713 
Q 2441 2713 2670 2916 
Q 2900 3119 2900 3481 
Q 2900 3844 2670 4047 
Q 2441 4250 2034 4250 
Q 1625 4250 1398 4047 
Q 1172 3844 1172 3481 
z
" transform="scale(0.015625)"/>
       </defs>
       <use xlink:href="#DejaVuSans-38"/>
      </g>
     </g>
    </g>
    <g id="ytick_6">
     <g id="line2d_31">
      <g>
       <use xlink:href="#mbf61295dd7" x="72" y="94.628571" style="stroke: #000000; stroke-width: 0.5"/>
      </g>
     </g>
     <g id="line2d_32">
      <g>
       <use xlink:href="#mdea26daf7d" x="518.4" y="94.628571" style="stroke: #000000; stroke-width: 0.5"/>
      </g>
     </g>
     <g id="text_16">
      <!-- 10 -->
      <g transform="translate(52.73 97.939821) scale(0.12 -0.12)">
       <use xlink:href="#DejaVuSans-31"/>
       <use xlink:href="#DejaVuSans-30" x="63.623047"/>
      </g>
     </g>
    </g>
    <g id="ytick_7">
     <g id="line2d_33">
      <g>
       <use xlink:href="#mbf61295dd7" x="72" y="61.714286" style="stroke: #000000; stroke-width: 0.5"/>
      </g>
     </g>
     <g id="line2d_34">
      <g>
       <use xlink:href="#mdea26daf7d" x="518.4" y="61.714286" style="stroke: #000000; stroke-width: 0.5"/>
      </g>
     </g>
     <g id="text_17">
      <!-- 12 -->
      <g transform="translate(52.73 65.025536) scale(0.12 -0.12)">
       <use xlink:href="#DejaVuSans-31"/>
       <use xlink:href="#DejaVuSans-32" x="63.623047"/>
      </g>
     </g>
    </g>
    <g id="ytick_8">
     <g id="line2d_35">
      <g>
       <use xlink:href="#mbf61295dd7" x="72" y="28.8" style="stroke: #000000; stroke-width: 0.5"/>
      </g>
     </g>
     <g id="line2d_36">
      <g>
       <use xlink:href="#mdea26daf7d" x="518.4" y="28.8" style="stroke: #000000; stroke-width: 0.5"/>
      </g>
     </g>
     <g id="text_18">
      <!-- 14 -->
      <g transform="translate(52.73 32.11125) scale(0.12 -0.12)">
       <use xlink:href="#DejaVuSans-31"/>
       <use xlink:href="#DejaVuSans-34" x="63.623047"/>
      </g>
     </g>
    </g>
    <g id="text_19">
     <!-- probability -->
     <g transform="translate(45.234375 176.010938) rotate(-90) scale(0.12 -0.12)">
      <defs>
       <path id="DejaVuSans-62" d="M 3116 1747 
Q 3116 2381 2855 2742 
Q 2594 3103 2138 3103 
Q 1681 3103 1420 2742 
Q 1159 2381 1159 1747 
Q 1159 1113 1420 752 
Q 1681 391 2138 391 
Q 2594 391 2855 752 
Q 3116 1113 3116 1747 
z
M 1159 2969 
Q 1341 3281 1617 3432 
Q 1894 3584 2278 3584 
Q 2916 3584 3314 3078 
Q 3713 2572 3713 1747 
Q 3713 922 3314 415 
Q 2916 -91 2278 -91 
Q 1894 -91 1617 61 
Q 1341 213 1159 525 
L 1159 0 
L 581 0 
L 581 4863 
L 1159 4863 
L 1159 2969 
z
" transform="scale(0.015625)"/>
       <path id="DejaVuSans-61" d="M 2194 1759 
Q 1497 1759 1228 1600 
Q 959 1441 959 1056 
Q 959 750 1161 570 
Q 1363 391 1709 391 
Q 2188 391 2477 730 
Q 2766 1069 2766 1631 
L 2766 1759 
L 2194 1759 
z
M 3341 1997 
L 3341 0 
L 2766 0 
L 2766 531 
Q 2569 213 2275 61 
Q 1981 -91 1556 -91 
Q 1019 -91 701 211 
Q 384 513 384 1019 
Q 384 1609 779 1909 
Q 1175 2209 1959 2209 
L 2766 2209 
L 2766 2266 
Q 2766 2663 2505 2880 
Q 2244 3097 1772 3097 
Q 1472 3097 1187 3025 
Q 903 2953 641 2809 
L 641 3341 
Q 956 3463 1253 3523 
Q 1550 3584 1831 3584 
Q 2591 3584 2966 3190 
Q 3341 2797 3341 1997 
z
" transform="scale(0.015625)"/>
       <path id="DejaVuSans-6c" d="M 603 4863 
L 1178 4863 
L 1178 0 
L 603 0 
L 603 4863 
z
" transform="scale(0.015625)"/>
       <path id="DejaVuSans-79" d="M 2059 -325 
Q 1816 -950 1584 -1140 
Q 1353 -1331 966 -1331 
L 506 -1331 
L 506 -850 
L 844 -850 
Q 1081 -850 1212 -737 
Q 1344 -625 1503 -206 
L 1606 56 
L 191 3500 
L 800 3500 
L 1894 763 
L 2988 3500 
L 3597 3500 
L 2059 -325 
z
" transform="scale(0.015625)"/>
      </defs>
      <use xlink:href="#DejaVuSans-70"/>
      <use xlink:href="#DejaVuSans-72" x="63.476562"/>
      <use xlink:href="#DejaVuSans-6f" x="102.339844"/>
      <use xlink:href="#DejaVuSans-62" x="163.521484"/>
      <use xlink:href="#DejaVuSans-61" x="226.998047"/>
      <use xlink:href="#DejaVuSans-62" x="288.277344"/>
      <use xlink:href="#DejaVuSans-69" x="351.753906"/>
      <use xlink:href="#DejaVuSans-6c" x="379.537109"/>
      <use xlink:href="#DejaVuSans-69" x="407.320312"/>
      <use xlink:href="#DejaVuSans-74" x="435.103516"/>
      <use xlink:href="#DejaVuSans-79" x="474.3125"/>
     </g>
    </g>
   </g>
   <g id="text_20">
    <!-- saccade Distribution -->
    <g transform="translate(221.414625 23.8) scale(0.144 -0.144)">
     <defs>
      <path id="DejaVuSans-63" d="M 3122 3366 
L 3122 2828 
Q 2878 2963 2633 3030 
Q 2388 3097 2138 3097 
Q 1578 3097 1268 2742 
Q 959 2388 959 1747 
Q 959 1106 1268 751 
Q 1578 397 2138 397 
Q 2388 397 2633 464 
Q 2878 531 3122 666 
L 3122 134 
Q 2881 22 2623 -34 
Q 2366 -91 2075 -91 
Q 1284 -91 818 406 
Q 353 903 353 1747 
Q 353 2603 823 3093 
Q 1294 3584 2113 3584 
Q 2378 3584 2631 3529 
Q 2884 3475 3122 3366 
z
" transform="scale(0.015625)"/>
      <path id="DejaVuSans-64" d="M 2906 2969 
L 2906 4863 
L 3481 4863 
L 3481 0 
L 2906 0 
L 2906 525 
Q 2725 213 2448 61 
Q 2172 -91 1784 -91 
Q 1150 -91 751 415 
Q 353 922 353 1747 
Q 353 2572 751 3078 
Q 1150 3584 1784 3584 
Q 2172 3584 2448 3432 
Q 2725 3281 2906 2969 
z
M 947 1747 
Q 947 1113 1208 752 
Q 1469 391 1925 391 
Q 2381 391 2643 752 
Q 2906 1113 2906 1747 
Q 2906 2381 2643 2742 
Q 2381 3103 1925 3103 
Q 1469 3103 1208 2742 
Q 947 2381 947 1747 
z
" transform="scale(0.015625)"/>
      <path id="DejaVuSans-44" d="M 1259 4147 
L 1259 519 
L 2022 519 
Q 2988 519 3436 956 
Q 3884 1394 3884 2338 
Q 3884 3275 3436 3711 
Q 2988 4147 2022 4147 
L 1259 4147 
z
M 628 4666 
L 1925 4666 
Q 3281 4666 3915 4102 
Q 4550 3538 4550 2338 
Q 4550 1131 3912 565 
Q 3275 0 1925 0 
L 628 0 
L 628 4666 
z
" transform="scale(0.015625)"/>
      <path id="DejaVuSans-75" d="M 544 1381 
L 544 3500 
L 1119 3500 
L 1119 1403 
Q 1119 906 1312 657 
Q 1506 409 1894 409 
Q 2359 409 2629 706 
Q 2900 1003 2900 1516 
L 2900 3500 
L 3475 3500 
L 3475 0 
L 2900 0 
L 2900 538 
Q 2691 219 2414 64 
Q 2138 -91 1772 -91 
Q 1169 -91 856 284 
Q 544 659 544 1381 
z
M 1991 3584 
L 1991 3584 
z
" transform="scale(0.015625)"/>
     </defs>
     <use xlink:href="#DejaVuSans-73"/>
     <use xlink:href="#DejaVuSans-61" x="52.099609"/>
     <use xlink:href="#DejaVuSans-63" x="113.378906"/>
     <use xlink:href="#DejaVuSans-63" x="168.359375"/>
     <use xlink:href="#DejaVuSans-61" x="223.339844"/>
     <use xlink:href="#DejaVuSans-64" x="284.619141"/>
     <use xlink:href="#DejaVuSans-65" x="348.095703"/>
     <use xlink:href="#DejaVuSans-20" x="409.619141"/>
     <use xlink:href="#DejaVuSans-44" x="441.40625"/>
     <use xlink:href="#DejaVuSans-69" x="518.408203"/>
     <use xlink:href="#DejaVuSans-73" x="546.191406"/>
     <use xlink:href="#DejaVuSans-74" x="598.291016"/>
     <use xlink:href="#DejaVuSans-72" x="637.5"/>
     <use xlink:href="#DejaVuSans-69" x="678.613281"/>
     <use xlink:href="#DejaVuSans-62" x="706.396484"/>
     <use xlink:href="#DejaVuSans-75" x="769.873047"/>
     <use xlink:href="#DejaVuSans-74" x="833.251953"/>
     <use xlink:href="#DejaVuSans-69" x="872.460938"/>
     <use xlink:href="#DejaVuSans-6f" x="900.244141"/>
     <use xlink:href="#DejaVuSans-6e" x="961.425781"/>
    </g>
   </g>
   <g id="legend_1">
    <g id="patch_205">
     <path d="M 405.819 82.593 
L 511.2 82.593 
L 511.2 36 
L 405.819 36 
z
" style="fill: #ffffff; stroke: #000000; stroke-linejoin: miter"/>
    </g>
    <g id="patch_206">
     <path d="M 411.579 52.70175 
L 440.379 52.70175 
L 440.379 42.62175 
L 411.579 42.62175 
z
" style="fill: #ff0000; opacity: 0.2; stroke: #ffff00; stroke-linejoin: miter"/>
    </g>
    <g id="text_21">
     <!-- explore -->
     <g transform="translate(451.899 52.70175) scale(0.144 -0.144)">
      <defs>
       <path id="DejaVuSans-78" d="M 3513 3500 
L 2247 1797 
L 3578 0 
L 2900 0 
L 1881 1375 
L 863 0 
L 184 0 
L 1544 1831 
L 300 3500 
L 978 3500 
L 1906 2253 
L 2834 3500 
L 3513 3500 
z
" transform="scale(0.015625)"/>
      </defs>
      <use xlink:href="#DejaVuSans-65"/>
      <use xlink:href="#DejaVuSans-78" x="59.773438"/>
      <use xlink:href="#DejaVuSans-70" x="118.953125"/>
      <use xlink:href="#DejaVuSans-6c" x="182.429688"/>
      <use xlink:href="#DejaVuSans-6f" x="210.212891"/>
      <use xlink:href="#DejaVuSans-72" x="271.394531"/>
      <use xlink:href="#DejaVuSans-65" x="310.257812"/>
     </g>
    </g>
    <g id="patch_207">
     <path d="M 411.579 73.83825 
L 440.379 73.83825 
L 440.379 63.75825 
L 411.579 63.75825 
z
" style="fill: #0000ff; opacity: 0.2; stroke: #0000ff; stroke-linejoin: miter"/>
    </g>
    <g id="text_22">
     <!-- exploit -->
     <g transform="translate(451.899 73.83825) scale(0.144 -0.144)">
      <use xlink:href="#DejaVuSans-65"/>
      <use xlink:href="#DejaVuSans-78" x="59.773438"/>
      <use xlink:href="#DejaVuSans-70" x="118.953125"/>
      <use xlink:href="#DejaVuSans-6c" x="182.429688"/>
      <use xlink:href="#DejaVuSans-6f" x="210.212891"/>
      <use xlink:href="#DejaVuSans-69" x="271.394531"/>
      <use xlink:href="#DejaVuSans-74" x="299.177734"/>
     </g>
    </g>
   </g>
  </g>
 </g>
 <defs>
  <clipPath id="pd798ef6ffb">
   <rect x="72" y="28.8" width="446.4" height="230.4"/>
  </clipPath>
 </defs>
</svg>
